<svg width="1618" height="530" viewBox="0 0 1618 530" fill="none" xmlns="http://www.w3.org/2000/svg">
<mask id="path-1-outside-1_7_31" maskUnits="userSpaceOnUse" x="486.349" y="221.988" width="259" height="284" fill="black">
<rect fill="white" x="486.349" y="221.988" width="259" height="284"/>
<path d="M729.319 444.616C703.796 475.243 670.501 490.557 629.434 490.557C610.872 490.557 593.586 487.192 577.577 480.464C561.568 473.735 547.646 464.57 535.813 452.969C524.212 441.136 515.047 427.331 508.319 411.553C501.59 395.776 498.226 378.722 498.226 360.393C498.226 342.063 501.59 325.01 508.319 309.232C515.047 293.455 524.212 279.765 535.813 268.164C547.646 256.331 561.568 247.05 577.577 240.322C593.586 233.593 610.872 230.229 629.434 230.229C649.852 230.229 667.485 233.709 682.335 240.67C697.416 247.631 711.105 257.723 723.402 270.949L685.467 307.84C678.97 300.415 671.198 294.267 662.149 289.394C653.1 284.29 642.311 281.738 629.782 281.738C618.877 281.738 608.668 283.594 599.155 287.306C589.874 291.018 581.753 296.355 574.793 303.316C567.832 310.276 562.38 318.629 558.435 328.374C554.491 337.887 552.519 348.56 552.519 360.393C552.519 372.226 554.491 383.015 558.435 392.76C562.38 402.273 567.832 410.509 574.793 417.47C581.753 424.431 589.874 429.767 599.155 433.479C608.668 437.192 618.877 439.048 629.782 439.048C643.007 439.048 654.492 436.38 664.237 431.043C673.982 425.707 682.799 418.05 690.687 408.073L729.319 444.616Z"/>
</mask>
<path d="M729.319 444.616C703.796 475.243 670.501 490.557 629.434 490.557C610.872 490.557 593.586 487.192 577.577 480.464C561.568 473.735 547.646 464.57 535.813 452.969C524.212 441.136 515.047 427.331 508.319 411.553C501.59 395.776 498.226 378.722 498.226 360.393C498.226 342.063 501.59 325.01 508.319 309.232C515.047 293.455 524.212 279.765 535.813 268.164C547.646 256.331 561.568 247.05 577.577 240.322C593.586 233.593 610.872 230.229 629.434 230.229C649.852 230.229 667.485 233.709 682.335 240.67C697.416 247.631 711.105 257.723 723.402 270.949L685.467 307.84C678.97 300.415 671.198 294.267 662.149 289.394C653.1 284.29 642.311 281.738 629.782 281.738C618.877 281.738 608.668 283.594 599.155 287.306C589.874 291.018 581.753 296.355 574.793 303.316C567.832 310.276 562.38 318.629 558.435 328.374C554.491 337.887 552.519 348.56 552.519 360.393C552.519 372.226 554.491 383.015 558.435 392.76C562.38 402.273 567.832 410.509 574.793 417.47C581.753 424.431 589.874 429.767 599.155 433.479C608.668 437.192 618.877 439.048 629.782 439.048C643.007 439.048 654.492 436.38 664.237 431.043C673.982 425.707 682.799 418.05 690.687 408.073L729.319 444.616Z" fill="white"/>
<path d="M729.319 448.616L738.087 455.923L744.947 447.69L737.162 440.325L729.319 448.616ZM577.577 484.464L573.155 494.985L577.577 484.464ZM535.813 456.969L527.663 464.959L527.743 465.04L527.823 465.119L535.813 456.969ZM508.319 415.553L497.82 420.031H497.82L508.319 415.553ZM508.319 313.232L518.817 317.709L508.319 313.232ZM535.813 272.164L527.743 264.094H527.743L535.813 272.164ZM577.577 244.322L581.999 254.843L581.999 254.843L577.577 244.322ZM682.335 244.67L677.49 255.004L677.521 255.018L677.552 255.033L682.335 244.67ZM723.402 274.949L731.359 283.131L739.36 275.35L731.76 267.177L723.402 274.949ZM685.467 311.84L676.878 319.356L684.799 328.409L693.424 320.022L685.467 311.84ZM662.149 293.394L656.541 303.335L656.639 303.39L656.738 303.443L662.149 293.394ZM599.155 291.306L595.006 280.674L594.961 280.692L594.916 280.709L599.155 291.306ZM574.793 307.316L582.863 315.386L574.793 307.316ZM558.435 332.374L568.978 336.745L568.996 336.701L569.015 336.656L558.435 332.374ZM558.435 396.76L547.856 401.042L547.874 401.087L547.893 401.131L558.435 396.76ZM574.793 421.47L566.722 429.54L574.793 421.47ZM599.155 437.479L594.916 448.076L594.961 448.094L595.006 448.112L599.155 437.479ZM664.237 435.043L658.755 425.033H658.755L664.237 435.043ZM690.687 412.073L698.53 403.782L689.47 395.211L681.735 404.994L690.687 412.073ZM720.551 441.31C697.271 469.246 667.232 483.144 629.434 483.144V505.97C673.771 505.97 710.322 489.241 738.087 455.923L720.551 441.31ZM629.434 483.144C612.285 483.144 596.514 480.043 581.999 473.942L573.155 494.985C590.659 502.342 609.459 505.97 629.434 505.97V483.144ZM581.999 473.942C567.253 467.745 554.558 459.364 543.803 448.819L527.823 465.119C540.734 477.777 555.882 487.726 573.155 494.985L581.999 473.942ZM543.963 448.979C533.391 438.196 525.008 425.593 518.817 411.076L497.82 420.031C505.087 437.068 515.033 452.076 527.663 464.959L543.963 448.979ZM518.817 411.076C512.733 396.81 509.639 381.291 509.639 364.393H486.813C486.813 384.154 490.448 402.742 497.82 420.031L518.817 411.076ZM509.639 364.393C509.639 347.495 512.733 331.976 518.817 317.709L497.82 308.755C490.448 326.043 486.813 344.631 486.813 364.393H509.639ZM518.817 317.709C525 303.212 533.361 290.758 543.883 280.235L527.743 264.094C515.064 276.773 505.095 291.698 497.82 308.755L518.817 317.709ZM543.883 280.235C554.631 269.487 567.301 261.021 581.999 254.843L573.155 233.8C555.834 241.08 540.661 251.176 527.743 264.094L543.883 280.235ZM581.999 254.843C596.514 248.743 612.285 245.642 629.434 245.642V222.816C609.459 222.816 590.659 226.444 573.155 233.8L581.999 254.843ZM629.434 245.642C648.577 245.642 664.481 248.906 677.49 255.004L687.179 234.336C670.489 226.513 651.126 222.816 629.434 222.816V245.642ZM677.552 255.033C691.17 261.318 703.67 270.488 715.044 282.72L731.76 267.177C718.54 252.959 703.661 241.943 687.117 234.307L677.552 255.033ZM715.445 266.767L677.51 303.658L693.424 320.022L731.359 283.131L715.445 266.767ZM694.056 304.324C686.623 295.829 677.76 288.838 667.56 283.345L656.738 303.443C664.635 307.696 671.318 313.001 676.878 319.356L694.056 304.324ZM667.756 283.454C656.676 277.203 643.872 274.325 629.782 274.325V297.151C640.75 297.151 649.524 299.376 656.541 303.335L667.756 283.454ZM629.782 274.325C617.554 274.325 605.929 276.411 595.006 280.674L603.304 301.938C611.407 298.776 620.199 297.151 629.782 297.151V274.325ZM594.916 280.709C584.223 284.987 574.793 291.175 566.722 299.245L582.863 315.386C588.713 309.535 595.525 305.05 603.394 301.903L594.916 280.709ZM566.722 299.245C558.608 307.36 552.335 317.026 547.856 328.092L569.015 336.656C572.424 328.232 577.056 321.193 582.863 315.386L566.722 299.245ZM547.893 328.003C543.294 339.092 541.106 351.281 541.106 364.393H563.932C563.932 353.838 565.687 344.681 568.978 336.745L547.893 328.003ZM541.106 364.393C541.106 377.51 543.296 389.776 547.856 401.042L569.015 392.478C565.686 384.254 563.932 374.942 563.932 364.393H541.106ZM547.893 401.131C552.383 411.962 558.654 421.472 566.722 429.54L582.863 413.4C577.01 407.547 572.376 400.583 568.978 392.388L547.893 401.131ZM566.722 429.54C574.793 437.611 584.223 443.799 594.916 448.076L603.394 426.883C595.525 423.735 588.713 419.25 582.863 413.4L566.722 429.54ZM595.006 448.112C605.929 452.374 617.554 454.461 629.782 454.461V431.635C620.199 431.635 611.407 430.009 603.304 426.847L595.006 448.112ZM629.782 454.461C644.559 454.461 658 451.471 669.719 445.054L658.755 425.033C650.984 429.289 641.455 431.635 629.782 431.635V454.461ZM669.719 445.054C680.986 438.884 690.939 430.156 699.64 419.152L681.735 404.994C674.658 413.944 666.978 420.53 658.755 425.033L669.719 445.054ZM682.844 420.364L721.476 456.908L737.162 440.325L698.53 403.782L682.844 420.364Z" fill="white" mask="url(#path-1-outside-1_7_31)"/>
<mask id="path-3-outside-2_7_31" maskUnits="userSpaceOnUse" x="22.693" y="221.988" width="281" height="284" fill="black">
<rect fill="white" x="22.693" y="221.988" width="281" height="284"/>
<path d="M165.778 346.472H288.633C289.329 349.256 289.909 352.852 290.373 357.261C291.069 361.669 291.418 365.845 291.418 369.79C291.418 387.423 288.865 403.085 283.761 416.774C278.656 430.463 271.232 442.528 261.487 452.969C250.35 464.802 236.893 474.083 221.115 480.812C205.338 487.308 187.356 490.557 167.17 490.557C149.073 490.557 131.903 487.308 115.662 480.812C99.6521 474.315 85.6148 465.382 73.5497 454.013C61.4846 442.412 51.9717 428.723 45.0111 412.946C38.0505 396.936 34.5701 379.419 34.5701 360.393C34.5701 341.367 38.0505 323.965 45.0111 308.188C51.9717 292.179 61.4846 278.489 73.5497 267.12C85.6148 255.519 99.6521 246.47 115.662 239.974C131.903 233.477 149.073 230.229 167.17 230.229C188.284 230.229 206.614 233.825 222.159 241.018C237.937 248.211 251.742 258.071 263.575 270.601L226.684 306.796C218.563 298.675 209.862 292.527 200.581 288.35C191.532 283.942 180.163 281.738 166.474 281.738C155.801 281.738 145.708 283.71 136.195 287.654C126.915 291.367 118.678 296.703 111.485 303.664C104.524 310.392 98.956 318.629 94.7796 328.374C90.8353 337.887 88.8631 348.56 88.8631 360.393C88.8631 372.226 90.8353 383.015 94.7796 392.76C98.956 402.273 104.641 410.509 111.833 417.47C119.026 424.199 127.379 429.535 136.891 433.479C146.404 437.192 156.613 439.048 167.518 439.048C188.864 439.048 205.918 433.363 218.679 421.994C222.623 418.514 226.22 414.222 229.468 409.117C232.948 403.781 235.732 397.98 237.821 391.716H165.778V346.472Z"/>
</mask>
<path d="M165.778 346.472H288.633C289.329 349.256 289.909 352.852 290.373 357.261C291.069 361.669 291.418 365.845 291.418 369.79C291.418 387.423 288.865 403.085 283.761 416.774C278.656 430.463 271.232 442.528 261.487 452.969C250.35 464.802 236.893 474.083 221.115 480.812C205.338 487.308 187.356 490.557 167.17 490.557C149.073 490.557 131.903 487.308 115.662 480.812C99.6521 474.315 85.6148 465.382 73.5497 454.013C61.4846 442.412 51.9717 428.723 45.0111 412.946C38.0505 396.936 34.5701 379.419 34.5701 360.393C34.5701 341.367 38.0505 323.965 45.0111 308.188C51.9717 292.179 61.4846 278.489 73.5497 267.12C85.6148 255.519 99.6521 246.47 115.662 239.974C131.903 233.477 149.073 230.229 167.17 230.229C188.284 230.229 206.614 233.825 222.159 241.018C237.937 248.211 251.742 258.071 263.575 270.601L226.684 306.796C218.563 298.675 209.862 292.527 200.581 288.35C191.532 283.942 180.163 281.738 166.474 281.738C155.801 281.738 145.708 283.71 136.195 287.654C126.915 291.367 118.678 296.703 111.485 303.664C104.524 310.392 98.956 318.629 94.7796 328.374C90.8353 337.887 88.8631 348.56 88.8631 360.393C88.8631 372.226 90.8353 383.015 94.7796 392.76C98.956 402.273 104.641 410.509 111.833 417.47C119.026 424.199 127.379 429.535 136.891 433.479C146.404 437.192 156.613 439.048 167.518 439.048C188.864 439.048 205.918 433.363 218.679 421.994C222.623 418.514 226.22 414.222 229.468 409.117C232.948 403.781 235.732 397.98 237.821 391.716H165.778V346.472Z" fill="white"/>
<path d="M165.778 350.472V339.058H154.365V350.472H165.778ZM288.633 350.472L299.706 347.703L297.544 339.058H288.633V350.472ZM290.373 361.261L279.023 362.455L279.054 362.749L279.1 363.041L290.373 361.261ZM283.761 420.774L294.455 424.761L283.761 420.774ZM261.487 456.969L269.798 464.791L269.814 464.774L269.83 464.757L261.487 456.969ZM221.115 484.812L225.461 495.365L225.527 495.338L225.592 495.31L221.115 484.812ZM115.662 484.812L111.37 495.387L111.396 495.398L111.423 495.409L115.662 484.812ZM73.5497 458.013L65.6392 466.24L65.6807 466.28L65.7226 466.32L73.5497 458.013ZM45.0111 416.946L34.5445 421.496L34.5567 421.524L34.5691 421.552L45.0111 416.946ZM45.0111 312.188L55.4531 316.795L55.4655 316.767L55.4777 316.739L45.0111 312.188ZM73.5497 271.12L81.3768 279.427L81.4187 279.387L81.4602 279.347L73.5497 271.12ZM115.662 243.974L111.423 233.377L111.396 233.388L111.37 233.398L115.662 243.974ZM222.159 245.018L217.367 255.376L217.396 255.389L217.425 255.403L222.159 245.018ZM263.575 274.601L271.568 282.747L279.561 274.905L271.872 266.764L263.575 274.601ZM226.684 310.796L218.613 318.866L226.607 326.86L234.677 318.943L226.684 310.796ZM200.581 292.35L195.583 302.61L195.739 302.687L195.898 302.758L200.581 292.35ZM136.195 291.654L140.434 302.251L140.501 302.224L140.567 302.197L136.195 291.654ZM111.485 307.664L119.417 315.869L119.422 315.865L111.485 307.664ZM94.7796 332.374L84.2894 327.878L84.2628 327.94L84.2369 328.003L94.7796 332.374ZM94.7796 396.76L84.2003 401.042L84.2626 401.196L84.3293 401.348L94.7796 396.76ZM111.833 421.47L103.896 429.671L103.966 429.739L104.036 429.805L111.833 421.47ZM136.891 437.479L132.52 448.022L132.631 448.068L132.742 448.112L136.891 437.479ZM218.679 425.994L211.128 417.436L211.107 417.455L211.087 417.473L218.679 425.994ZM229.468 413.117L219.908 406.883L219.873 406.936L219.839 406.99L229.468 413.117ZM237.821 395.716L248.648 399.325L253.655 384.303H237.821V395.716ZM165.778 395.716H154.365V407.129H165.778V395.716ZM165.778 361.885H288.633V339.058H165.778V361.885ZM277.561 353.24C278.078 355.308 278.588 358.325 279.023 362.455L301.724 360.066C301.23 355.379 300.581 351.203 299.706 347.703L277.561 353.24ZM279.1 363.041C279.715 366.935 280.004 370.513 280.004 373.79H302.831C302.831 369.178 302.424 364.402 301.647 359.48L279.1 363.041ZM280.004 373.79C280.004 390.336 277.609 404.606 273.067 416.786L294.455 424.761C300.122 409.563 302.831 392.511 302.831 373.79H280.004ZM273.067 416.786C268.476 429.1 261.838 439.866 253.143 449.182L269.83 464.757C280.625 453.191 288.837 439.827 294.455 424.761L273.067 416.786ZM253.176 449.147C243.178 459.77 231.048 468.168 216.638 474.314L225.592 495.31C242.737 487.998 257.522 477.835 269.798 464.791L253.176 449.147ZM216.77 474.258C202.599 480.093 186.133 483.144 167.17 483.144V505.97C188.579 505.97 208.077 502.523 225.461 495.365L216.77 474.258ZM167.17 483.144C150.473 483.144 134.747 480.154 119.9 474.215L111.423 495.409C129.059 502.463 147.672 505.97 167.17 505.97V483.144ZM119.953 474.236C105.196 468.248 92.3708 460.067 81.3768 449.707L65.7226 466.32C78.8588 478.698 94.1078 488.382 111.37 495.387L119.953 474.236ZM81.4602 449.786C70.4993 439.247 61.8323 426.798 55.4531 412.339L34.5691 421.552C42.1112 438.648 52.4699 453.577 65.6392 466.24L81.4602 449.786ZM55.4777 412.395C49.1956 397.946 45.9832 381.995 45.9832 364.393H23.1571C23.1571 384.842 26.9053 403.926 34.5445 421.496L55.4777 412.395ZM45.9832 364.393C45.9832 346.789 49.1962 330.977 55.4531 316.795L34.5691 307.581C26.9047 324.954 23.1571 343.946 23.1571 364.393H45.9832ZM55.4777 316.739C61.8552 302.07 70.496 289.68 81.3768 279.427L65.7226 262.814C52.4732 275.299 42.0883 290.287 34.5445 307.637L55.4777 316.739ZM81.4602 279.347C92.4454 268.785 105.244 260.518 119.953 254.549L111.37 233.398C94.0601 240.423 78.7842 250.254 65.6392 262.893L81.4602 279.347ZM119.9 254.571C134.747 248.632 150.473 245.642 167.17 245.642V222.816C147.672 222.816 129.059 226.323 111.423 233.377L119.9 254.571ZM167.17 245.642C187.005 245.642 203.631 249.021 217.367 255.376L226.952 234.66C209.597 226.63 189.563 222.816 167.17 222.816V245.642ZM217.425 255.403C231.87 261.988 244.463 270.986 255.278 282.437L271.872 266.764C259.021 253.157 244.004 242.433 226.893 234.633L217.425 255.403ZM255.582 266.454L218.691 302.649L234.677 318.943L271.568 282.747L255.582 266.454ZM234.754 302.726C225.78 293.752 215.958 286.754 205.265 281.942L195.898 302.758C203.766 306.299 211.346 311.599 218.613 318.866L234.754 302.726ZM205.58 282.09C194.518 276.701 181.305 274.325 166.474 274.325V297.151C179.022 297.151 188.547 299.183 195.583 302.61L205.58 282.09ZM166.474 274.325C154.357 274.325 142.773 276.572 131.824 281.111L140.567 302.197C148.643 298.848 157.246 297.151 166.474 297.151V274.325ZM131.957 281.057C121.297 285.321 111.805 291.472 103.548 299.462L119.422 315.865C125.551 309.934 132.532 305.412 140.434 302.251L131.957 281.057ZM103.553 299.458C95.4017 307.337 89.0061 316.872 84.2894 327.878L105.27 336.87C108.906 328.386 113.647 321.447 119.417 315.869L103.553 299.458ZM84.2369 328.003C79.6387 339.092 77.45 351.281 77.45 364.393H100.276C100.276 353.838 102.032 344.681 105.322 336.745L84.2369 328.003ZM77.45 364.393C77.45 377.51 79.6404 389.776 84.2003 401.042L105.359 392.478C102.03 384.254 100.276 374.942 100.276 364.393H77.45ZM84.3293 401.348C89.078 412.164 95.5989 421.642 103.896 429.671L119.77 413.269C113.682 407.377 108.834 400.381 105.23 392.172L84.3293 401.348ZM104.036 429.805C112.274 437.511 121.801 443.577 132.52 448.022L141.263 426.937C132.957 423.493 125.777 418.886 119.63 413.135L104.036 429.805ZM132.742 448.112C143.665 452.374 155.291 454.461 167.518 454.461V431.635C157.936 431.635 149.143 430.009 141.041 426.847L132.742 448.112ZM167.518 454.461C190.94 454.461 210.936 448.178 226.271 434.516L211.087 417.473C200.9 426.548 186.788 431.635 167.518 431.635V454.461ZM226.23 434.552C231.087 430.266 235.358 425.12 239.097 419.245L219.839 406.99C217.081 411.323 214.159 414.762 211.128 417.436L226.23 434.552ZM239.028 419.352C243.06 413.169 246.263 406.481 248.648 399.325L226.993 392.107C225.202 397.479 222.836 402.393 219.908 406.883L239.028 419.352ZM237.821 384.303H165.778V407.129H237.821V384.303ZM177.191 395.716V350.472H154.365V395.716H177.191Z" fill="white" mask="url(#path-3-outside-2_7_31)"/>
<mask id="path-5-outside-3_7_31" maskUnits="userSpaceOnUse" x="770.235" y="292.665" width="409" height="86" fill="black">
<rect fill="white" x="770.235" y="292.665" width="409" height="86"/>
<path d="M812.085 347.71V333.459H843.328V369.854C836.093 374.02 825.678 376.87 815.483 376.87C789.831 376.87 772.072 359.769 772.072 336.309C772.072 312.74 790.05 295.09 815.593 295.09C825.788 295.09 834.558 297.94 840.807 301.448V318.769C833.9 314.055 825.021 310.767 816.141 310.767C799.917 310.767 789.612 321.948 789.612 336.2C789.612 350.122 799.368 361.742 816.031 361.742C819.868 361.742 823.596 360.975 826.446 359.769V347.71H812.085ZM869.345 375.665V296.296H898.505C907.056 296.296 913.743 297.721 919.224 301.668C924.706 305.614 928.433 312.082 928.433 320.742C928.433 331.266 922.732 339.269 913.085 342.996L934.682 375.665H914.73L895.217 345.518H886.775V375.665H869.345ZM886.775 331.705H897.519C901.904 331.705 904.864 331.157 907.275 329.512C909.687 327.868 911.003 324.799 911.003 321.51C911.003 318.002 909.577 315.042 907.275 313.398C904.973 311.753 901.904 311.205 897.519 311.205H886.775V331.705ZM954.12 375.665V296.296H1003.12V311.534H971.551V327.539H998.738V342.229H971.551V360.427H1004.33V375.665H954.12ZM1021.82 375.665L1053.61 296.296H1071.37L1103.16 375.665H1084.52L1078.06 359.002H1046.16L1039.69 375.665H1021.82ZM1051.42 345.298H1072.9L1069.72 336.748C1067.31 330.17 1064.46 322.277 1062.49 316.357H1062.27C1060.08 322.606 1057.34 330.17 1054.71 336.857L1051.42 345.298ZM1133.88 375.665V311.534H1108.23V296.296H1176.97V311.534H1151.31V375.665H1133.88Z"/>
</mask>
<path d="M812.085 347.71V333.459H843.328V369.854C836.093 374.02 825.678 376.87 815.483 376.87C789.831 376.87 772.072 359.769 772.072 336.309C772.072 312.74 790.05 295.09 815.593 295.09C825.788 295.09 834.558 297.94 840.807 301.448V318.769C833.9 314.055 825.021 310.767 816.141 310.767C799.917 310.767 789.612 321.948 789.612 336.2C789.612 350.122 799.368 361.742 816.031 361.742C819.868 361.742 823.596 360.975 826.446 359.769V347.71H812.085ZM869.345 375.665V296.296H898.505C907.056 296.296 913.743 297.721 919.224 301.668C924.706 305.614 928.433 312.082 928.433 320.742C928.433 331.266 922.732 339.269 913.085 342.996L934.682 375.665H914.73L895.217 345.518H886.775V375.665H869.345ZM886.775 331.705H897.519C901.904 331.705 904.864 331.157 907.275 329.512C909.687 327.868 911.003 324.799 911.003 321.51C911.003 318.002 909.577 315.042 907.275 313.398C904.973 311.753 901.904 311.205 897.519 311.205H886.775V331.705ZM954.12 375.665V296.296H1003.12V311.534H971.551V327.539H998.738V342.229H971.551V360.427H1004.33V375.665H954.12ZM1021.82 375.665L1053.61 296.296H1071.37L1103.16 375.665H1084.52L1078.06 359.002H1046.16L1039.69 375.665H1021.82ZM1051.42 345.298H1072.9L1069.72 336.748C1067.31 330.17 1064.46 322.277 1062.49 316.357H1062.27C1060.08 322.606 1057.34 330.17 1054.71 336.857L1051.42 345.298ZM1133.88 375.665V311.534H1108.23V296.296H1176.97V311.534H1151.31V375.665H1133.88Z" fill="white"/>
<path d="M812.085 347.71H810.642V349.153H812.085V347.71ZM812.085 333.459V332.017H810.642V333.459H812.085ZM843.328 333.459H844.77V332.017H843.328V333.459ZM843.328 369.854L844.048 371.104L844.77 370.688V369.854H843.328ZM840.807 301.448H842.249V300.604L841.513 300.191L840.807 301.448ZM840.807 318.769L839.993 319.961L842.249 321.5V318.769H840.807ZM826.446 359.769L827.008 361.097L827.888 360.725V359.769H826.446ZM826.446 347.71H827.888V346.268H826.446V347.71ZM813.527 347.71V333.459H810.642V347.71H813.527ZM812.085 334.901H843.328V332.017H812.085V334.901ZM841.886 333.459V369.854H844.77V333.459H841.886ZM842.608 368.604C835.607 372.635 825.444 375.428 815.483 375.428V378.313C825.913 378.313 836.579 375.405 844.048 371.104L842.608 368.604ZM815.483 375.428C790.546 375.428 773.514 358.893 773.514 336.309H770.629C770.629 360.645 789.116 378.313 815.483 378.313V375.428ZM773.514 336.309C773.514 313.595 790.787 296.533 815.593 296.533V293.648C789.314 293.648 770.629 311.884 770.629 336.309H773.514ZM815.593 296.533C825.523 296.533 834.052 299.311 840.101 302.706L841.513 300.191C835.064 296.57 826.053 293.648 815.593 293.648V296.533ZM839.364 301.448V318.769H842.249V301.448H839.364ZM841.62 317.578C834.517 312.73 825.36 309.324 816.141 309.324V312.209C824.682 312.209 833.283 315.38 839.993 319.961L841.62 317.578ZM816.141 309.324C807.686 309.324 800.676 312.244 795.775 317.116C790.878 321.984 788.169 328.72 788.169 336.2H791.054C791.054 329.428 793.498 323.448 797.809 319.162C802.117 314.88 808.371 312.209 816.141 312.209V309.324ZM788.169 336.2C788.169 343.499 790.73 350.257 795.539 355.198C800.359 360.148 807.349 363.185 816.031 363.185V360.3C808.051 360.3 801.832 357.526 797.607 353.186C793.372 348.836 791.054 342.823 791.054 336.2H788.169ZM816.031 363.185C820.044 363.185 823.964 362.385 827.008 361.097L825.884 358.44C823.227 359.565 819.693 360.3 816.031 360.3V363.185ZM827.888 359.769V347.71H825.003V359.769H827.888ZM826.446 346.268H812.085V349.153H826.446V346.268ZM869.345 375.665H867.903V377.107H869.345V375.665ZM869.345 296.296V294.854H867.903V296.296H869.345ZM919.224 301.668L918.382 302.838L919.224 301.668ZM913.085 342.996L912.566 341.651L910.894 342.297L911.882 343.792L913.085 342.996ZM934.682 375.665V377.107H937.364L935.885 374.869L934.682 375.665ZM914.73 375.665L913.519 376.448L913.945 377.107H914.73V375.665ZM895.217 345.518L896.428 344.734L896.001 344.075H895.217V345.518ZM886.775 345.518V344.075H885.333V345.518H886.775ZM886.775 375.665V377.107H888.218V375.665H886.775ZM886.775 331.705H885.333V333.147H886.775V331.705ZM907.275 329.512L906.463 328.321L907.275 329.512ZM886.775 311.205V309.763H885.333V311.205H886.775ZM870.788 375.665V296.296H867.903V375.665H870.788ZM869.345 297.739H898.505V294.854H869.345V297.739ZM898.505 297.739C906.908 297.739 913.247 299.141 918.382 302.838L920.067 300.497C914.24 296.301 907.205 294.854 898.505 294.854V297.739ZM918.382 302.838C923.478 306.508 926.991 312.536 926.991 320.742H929.875C929.875 311.628 925.933 304.72 920.067 300.497L918.382 302.838ZM926.991 320.742C926.991 330.655 921.671 338.133 912.566 341.651L913.605 344.342C923.794 340.405 929.875 331.878 929.875 320.742H926.991ZM911.882 343.792L933.478 376.46L935.885 374.869L914.289 342.201L911.882 343.792ZM934.682 374.222H914.73V377.107H934.682V374.222ZM915.941 374.881L896.428 344.734L894.006 346.301L913.519 376.448L915.941 374.881ZM895.217 344.075H886.775V346.96H895.217V344.075ZM885.333 345.518V375.665H888.218V345.518H885.333ZM886.775 374.222H869.345V377.107H886.775V374.222ZM886.775 333.147H897.519V330.263H886.775V333.147ZM897.519 333.147C901.994 333.147 905.313 332.596 908.088 330.704L906.463 328.321C904.415 329.717 901.813 330.263 897.519 330.263V333.147ZM908.088 330.704C910.994 328.723 912.445 325.141 912.445 321.51H909.56C909.56 324.457 908.381 327.013 906.463 328.321L908.088 330.704ZM912.445 321.51C912.445 317.625 910.862 314.187 908.114 312.224L906.437 314.571C908.293 315.897 909.56 318.378 909.56 321.51H912.445ZM908.114 312.224C905.429 310.306 901.972 309.763 897.519 309.763V312.648C901.835 312.648 904.517 313.2 906.437 314.571L908.114 312.224ZM897.519 309.763H886.775V312.648H897.519V309.763ZM885.333 311.205V331.705H888.218V311.205H885.333ZM954.12 375.665H952.678V377.107H954.12V375.665ZM954.12 296.296V294.854H952.678V296.296H954.12ZM1003.12 296.296H1004.57V294.854H1003.12V296.296ZM1003.12 311.534V312.976H1004.57V311.534H1003.12ZM971.551 311.534V310.092H970.108V311.534H971.551ZM971.551 327.539H970.108V328.982H971.551V327.539ZM998.738 327.539H1000.18V326.097H998.738V327.539ZM998.738 342.229V343.671H1000.18V342.229H998.738ZM971.551 342.229V340.786H970.108V342.229H971.551ZM971.551 360.427H970.108V361.869H971.551V360.427ZM1004.33 360.427H1005.77V358.984H1004.33V360.427ZM1004.33 375.665V377.107H1005.77V375.665H1004.33ZM955.563 375.665V296.296H952.678V375.665H955.563ZM954.12 297.739H1003.12V294.854H954.12V297.739ZM1001.68 296.296V311.534H1004.57V296.296H1001.68ZM1003.12 310.092H971.551V312.976H1003.12V310.092ZM970.108 311.534V327.539H972.993V311.534H970.108ZM971.551 328.982H998.738V326.097H971.551V328.982ZM997.295 327.539V342.229H1000.18V327.539H997.295ZM998.738 340.786H971.551V343.671H998.738V340.786ZM970.108 342.229V360.427H972.993V342.229H970.108ZM971.551 361.869H1004.33V358.984H971.551V361.869ZM1002.89 360.427V375.665H1005.77V360.427H1002.89ZM1004.33 374.222H954.12V377.107H1004.33V374.222ZM1021.82 375.665L1020.48 375.128L1019.69 377.107H1021.82V375.665ZM1053.61 296.296V294.854H1052.63L1052.27 295.76L1053.61 296.296ZM1071.37 296.296L1072.71 295.76L1072.35 294.854H1071.37V296.296ZM1103.16 375.665V377.107H1105.29L1104.5 375.128L1103.16 375.665ZM1084.52 375.665L1083.18 376.187L1083.54 377.107H1084.52V375.665ZM1078.06 359.002L1079.4 358.48L1079.04 357.559H1078.06V359.002ZM1046.16 359.002V357.559H1045.17L1044.81 358.48L1046.16 359.002ZM1039.69 375.665V377.107H1040.68L1041.03 376.187L1039.69 375.665ZM1051.42 345.298L1050.07 344.775L1049.31 346.741H1051.42V345.298ZM1072.9 345.298V346.741H1074.98L1074.26 344.796L1072.9 345.298ZM1069.73 336.748L1068.37 337.244L1068.37 337.25L1069.73 336.748ZM1062.49 316.357L1063.86 315.901L1063.53 314.915H1062.49V316.357ZM1062.27 316.357V314.915H1061.25L1060.91 315.88L1062.27 316.357ZM1054.71 336.857L1053.36 336.329L1053.36 336.334L1054.71 336.857ZM1023.16 376.201L1054.95 296.832L1052.27 295.76L1020.48 375.128L1023.16 376.201ZM1053.61 297.739H1071.37V294.854H1053.61V297.739ZM1070.03 296.832L1101.82 376.201L1104.5 375.128L1072.71 295.76L1070.03 296.832ZM1103.16 374.222H1084.52V377.107H1103.16V374.222ZM1085.87 375.143L1079.4 358.48L1076.71 359.524L1083.18 376.187L1085.87 375.143ZM1078.06 357.559H1046.16V360.444H1078.06V357.559ZM1044.81 358.48L1038.34 375.143L1041.03 376.187L1047.5 359.524L1044.81 358.48ZM1039.69 374.222H1021.82V377.107H1039.69V374.222ZM1051.42 346.741H1072.9V343.856H1051.42V346.741ZM1074.26 344.796L1071.08 336.245L1068.37 337.25L1071.55 345.801L1074.26 344.796ZM1071.08 336.251C1068.67 329.674 1065.82 321.799 1063.86 315.901L1061.12 316.814C1063.1 322.756 1065.96 330.666 1068.37 337.244L1071.08 336.251ZM1062.49 314.915H1062.27V317.8H1062.49V314.915ZM1060.91 315.88C1058.72 322.12 1055.99 329.666 1053.36 336.329L1056.05 337.385C1058.69 330.675 1061.44 323.092 1063.63 316.835L1060.91 315.88ZM1053.36 336.334L1050.07 344.775L1052.76 345.822L1056.05 337.381L1053.36 336.334ZM1133.88 375.665H1132.44V377.107H1133.88V375.665ZM1133.88 311.534H1135.33V310.092H1133.88V311.534ZM1108.23 311.534H1106.79V312.976H1108.23V311.534ZM1108.23 296.296V294.854H1106.79V296.296H1108.23ZM1176.97 296.296H1178.41V294.854H1176.97V296.296ZM1176.97 311.534V312.976H1178.41V311.534H1176.97ZM1151.31 311.534V310.092H1149.87V311.534H1151.31ZM1151.31 375.665V377.107H1152.76V375.665H1151.31ZM1135.33 375.665V311.534H1132.44V375.665H1135.33ZM1133.88 310.092H1108.23V312.976H1133.88V310.092ZM1109.67 311.534V296.296H1106.79V311.534H1109.67ZM1108.23 297.739H1176.97V294.854H1108.23V297.739ZM1175.52 296.296V311.534H1178.41V296.296H1175.52ZM1176.97 310.092H1151.31V312.976H1176.97V310.092ZM1149.87 311.534V375.665H1152.76V311.534H1149.87ZM1151.31 374.222H1133.88V377.107H1151.31V374.222Z" fill="white" mask="url(#path-5-outside-3_7_31)"/>
<mask id="path-7-outside-4_7_31" maskUnits="userSpaceOnUse" x="826.194" y="404.446" width="487" height="43" fill="black">
<rect fill="white" x="826.194" y="404.446" width="487" height="43"/>
<path d="M859.682 442.304C856.547 444.133 852.368 445.021 848.502 445.021C836.381 445.021 827.97 436.662 827.97 425.638C827.97 414.562 836.433 406.047 848.554 406.047C852.577 406.047 856.391 406.987 859.369 408.659V416.861C856.495 414.824 852.681 413.465 848.867 413.465C841.449 413.465 836.329 418.637 836.329 425.481C836.329 432.325 841.344 437.602 849.181 437.602C853.047 437.602 856.756 436.244 859.682 434.154V442.304ZM888.362 445.021C877.13 445.021 868.614 436.557 868.614 425.534C868.614 414.51 877.13 406.047 888.362 406.047C899.595 406.047 908.111 414.51 908.111 425.534C908.111 436.557 899.595 445.021 888.362 445.021ZM888.362 437.602C894.893 437.602 899.804 432.273 899.804 425.534C899.804 418.794 894.893 413.465 888.362 413.465C881.832 413.465 876.921 418.794 876.921 425.534C876.921 432.273 881.832 437.602 888.362 437.602ZM919.093 444.446V406.621H926.93L938.267 421.877C940.722 425.168 943.021 428.355 945.372 431.646H945.476C945.424 427.989 945.372 424.332 945.372 420.675V406.621H953.365V444.446H945.529L934.192 429.191C931.736 425.899 929.438 422.712 927.087 419.421H926.982C927.034 423.078 927.087 426.735 927.087 430.392V444.446H919.093ZM965.125 433.684C969.356 436.609 974.476 437.811 977.402 437.811C980.798 437.811 982.888 436.505 982.888 433.893C982.888 432.064 981.895 431.072 979.544 430.131C977.193 429.191 972.491 428.25 969.356 426.422C966.222 424.593 964.55 421.877 964.55 417.645C964.55 410.383 969.827 406.047 977.768 406.047C981.477 406.047 985.97 406.987 989.261 408.711V416.757C985.291 414.301 980.85 413.256 977.977 413.256C974.894 413.256 972.909 414.458 972.909 416.861C972.909 418.69 973.954 419.63 976.357 420.57C978.76 421.511 983.462 422.399 986.597 424.28C989.732 426.161 991.247 429.191 991.247 433.161C991.247 440.632 985.761 445.021 977.559 445.021C973.64 445.021 968.73 443.976 965.125 442.043V433.684ZM1011.12 444.446V413.883H998.891V406.621H1031.65V413.883H1019.42V444.446H1011.12ZM1041.64 444.446V406.621H1055.53C1059.61 406.621 1062.8 407.301 1065.41 409.181C1068.02 411.062 1069.8 414.144 1069.8 418.272C1069.8 423.287 1067.08 427.101 1062.48 428.877L1072.78 444.446H1063.27L1053.97 430.079H1049.94V444.446H1041.64ZM1049.94 423.496H1055.06C1057.15 423.496 1058.57 423.235 1059.71 422.451C1060.86 421.668 1061.49 420.205 1061.49 418.637C1061.49 416.966 1060.81 415.555 1059.71 414.771C1058.62 413.988 1057.15 413.727 1055.06 413.727H1049.94V423.496ZM1081.15 406.621H1089.46V427.676C1089.46 430.392 1089.82 432.796 1091.23 434.624C1092.64 436.453 1094.79 437.55 1097.76 437.55C1100.79 437.55 1102.88 436.453 1104.3 434.624C1105.71 432.796 1106.12 430.392 1106.12 427.676V406.621H1114.12V428.198C1114.12 432.378 1113.23 436.609 1110.46 439.796C1107.69 442.983 1103.25 445.021 1097.61 445.021C1092.23 445.021 1087.53 443.035 1084.81 439.796C1082.09 436.557 1081.15 432.534 1081.15 428.198V406.621ZM1156.44 442.304C1153.3 444.133 1149.12 445.021 1145.26 445.021C1133.14 445.021 1124.72 436.662 1124.72 425.638C1124.72 414.562 1133.19 406.047 1145.31 406.047C1149.33 406.047 1153.14 406.987 1156.12 408.659V416.861C1153.25 414.824 1149.44 413.465 1145.62 413.465C1138.2 413.465 1133.08 418.637 1133.08 425.481C1133.08 432.325 1138.1 437.602 1145.94 437.602C1149.8 437.602 1153.51 436.244 1156.44 434.154V442.304ZM1177.01 444.446V413.883H1164.78V406.621H1197.54V413.883H1185.32V444.446H1177.01ZM1207.53 444.446V406.621H1215.84V444.446H1207.53ZM1246.56 445.021C1235.33 445.021 1226.81 436.557 1226.81 425.534C1226.81 414.51 1235.33 406.047 1246.56 406.047C1257.79 406.047 1266.31 414.51 1266.31 425.534C1266.31 436.557 1257.79 445.021 1246.56 445.021ZM1246.56 437.602C1253.09 437.602 1258 432.273 1258 425.534C1258 418.794 1253.09 413.465 1246.56 413.465C1240.03 413.465 1235.12 418.794 1235.12 425.534C1235.12 432.273 1240.03 437.602 1246.56 437.602ZM1277.29 444.446V406.621H1285.13L1296.46 421.877C1298.92 425.168 1301.22 428.355 1303.57 431.646H1303.67C1303.62 427.989 1303.57 424.332 1303.57 420.675V406.621H1311.56V444.446H1303.72L1292.39 429.191C1289.93 425.899 1287.63 422.712 1285.28 419.421H1285.18C1285.23 423.078 1285.28 426.735 1285.28 430.392V444.446H1277.29Z"/>
</mask>
<path d="M859.682 442.304C856.547 444.133 852.368 445.021 848.502 445.021C836.381 445.021 827.97 436.662 827.97 425.638C827.97 414.562 836.433 406.047 848.554 406.047C852.577 406.047 856.391 406.987 859.369 408.659V416.861C856.495 414.824 852.681 413.465 848.867 413.465C841.449 413.465 836.329 418.637 836.329 425.481C836.329 432.325 841.344 437.602 849.181 437.602C853.047 437.602 856.756 436.244 859.682 434.154V442.304ZM888.362 445.021C877.13 445.021 868.614 436.557 868.614 425.534C868.614 414.51 877.13 406.047 888.362 406.047C899.595 406.047 908.111 414.51 908.111 425.534C908.111 436.557 899.595 445.021 888.362 445.021ZM888.362 437.602C894.893 437.602 899.804 432.273 899.804 425.534C899.804 418.794 894.893 413.465 888.362 413.465C881.832 413.465 876.921 418.794 876.921 425.534C876.921 432.273 881.832 437.602 888.362 437.602ZM919.093 444.446V406.621H926.93L938.267 421.877C940.722 425.168 943.021 428.355 945.372 431.646H945.476C945.424 427.989 945.372 424.332 945.372 420.675V406.621H953.365V444.446H945.529L934.192 429.191C931.736 425.899 929.438 422.712 927.087 419.421H926.982C927.034 423.078 927.087 426.735 927.087 430.392V444.446H919.093ZM965.125 433.684C969.356 436.609 974.476 437.811 977.402 437.811C980.798 437.811 982.888 436.505 982.888 433.893C982.888 432.064 981.895 431.072 979.544 430.131C977.193 429.191 972.491 428.25 969.356 426.422C966.222 424.593 964.55 421.877 964.55 417.645C964.55 410.383 969.827 406.047 977.768 406.047C981.477 406.047 985.97 406.987 989.261 408.711V416.757C985.291 414.301 980.85 413.256 977.977 413.256C974.894 413.256 972.909 414.458 972.909 416.861C972.909 418.69 973.954 419.63 976.357 420.57C978.76 421.511 983.462 422.399 986.597 424.28C989.732 426.161 991.247 429.191 991.247 433.161C991.247 440.632 985.761 445.021 977.559 445.021C973.64 445.021 968.73 443.976 965.125 442.043V433.684ZM1011.12 444.446V413.883H998.891V406.621H1031.65V413.883H1019.42V444.446H1011.12ZM1041.64 444.446V406.621H1055.53C1059.61 406.621 1062.8 407.301 1065.41 409.181C1068.02 411.062 1069.8 414.144 1069.8 418.272C1069.8 423.287 1067.08 427.101 1062.48 428.877L1072.78 444.446H1063.27L1053.97 430.079H1049.94V444.446H1041.64ZM1049.94 423.496H1055.06C1057.15 423.496 1058.57 423.235 1059.71 422.451C1060.86 421.668 1061.49 420.205 1061.49 418.637C1061.49 416.966 1060.81 415.555 1059.71 414.771C1058.62 413.988 1057.15 413.727 1055.06 413.727H1049.94V423.496ZM1081.15 406.621H1089.46V427.676C1089.46 430.392 1089.82 432.796 1091.23 434.624C1092.64 436.453 1094.79 437.55 1097.76 437.55C1100.79 437.55 1102.88 436.453 1104.3 434.624C1105.71 432.796 1106.12 430.392 1106.12 427.676V406.621H1114.12V428.198C1114.12 432.378 1113.23 436.609 1110.46 439.796C1107.69 442.983 1103.25 445.021 1097.61 445.021C1092.23 445.021 1087.53 443.035 1084.81 439.796C1082.09 436.557 1081.15 432.534 1081.15 428.198V406.621ZM1156.44 442.304C1153.3 444.133 1149.12 445.021 1145.26 445.021C1133.14 445.021 1124.72 436.662 1124.72 425.638C1124.72 414.562 1133.19 406.047 1145.31 406.047C1149.33 406.047 1153.14 406.987 1156.12 408.659V416.861C1153.25 414.824 1149.44 413.465 1145.62 413.465C1138.2 413.465 1133.08 418.637 1133.08 425.481C1133.08 432.325 1138.1 437.602 1145.94 437.602C1149.8 437.602 1153.51 436.244 1156.44 434.154V442.304ZM1177.01 444.446V413.883H1164.78V406.621H1197.54V413.883H1185.32V444.446H1177.01ZM1207.53 444.446V406.621H1215.84V444.446H1207.53ZM1246.56 445.021C1235.33 445.021 1226.81 436.557 1226.81 425.534C1226.81 414.51 1235.33 406.047 1246.56 406.047C1257.79 406.047 1266.31 414.51 1266.31 425.534C1266.31 436.557 1257.79 445.021 1246.56 445.021ZM1246.56 437.602C1253.09 437.602 1258 432.273 1258 425.534C1258 418.794 1253.09 413.465 1246.56 413.465C1240.03 413.465 1235.12 418.794 1235.12 425.534C1235.12 432.273 1240.03 437.602 1246.56 437.602ZM1277.29 444.446V406.621H1285.13L1296.46 421.877C1298.92 425.168 1301.22 428.355 1303.57 431.646H1303.67C1303.62 427.989 1303.57 424.332 1303.57 420.675V406.621H1311.56V444.446H1303.72L1292.39 429.191C1289.93 425.899 1287.63 422.712 1285.28 419.421H1285.18C1285.23 423.078 1285.28 426.735 1285.28 430.392V444.446H1277.29Z" fill="white"/>
<path d="M859.682 442.304L860.409 443.55L861.124 443.132V442.304H859.682ZM859.369 408.659H860.811V407.814L860.075 407.401L859.369 408.659ZM859.369 416.861L858.534 418.038L860.811 419.652V416.861H859.369ZM859.682 434.154H861.124V431.351L858.844 432.98L859.682 434.154ZM858.955 441.058C856.095 442.726 852.183 443.578 848.502 443.578V446.463C852.552 446.463 856.999 445.539 860.409 443.55L858.955 441.058ZM848.502 443.578C837.12 443.578 829.412 435.808 829.412 425.638H826.527C826.527 437.515 835.643 446.463 848.502 446.463V443.578ZM829.412 425.638C829.412 415.403 837.185 407.489 848.554 407.489V404.604C835.682 404.604 826.527 413.721 826.527 425.638H829.412ZM848.554 407.489C852.366 407.489 855.93 408.382 858.662 409.917L860.075 407.401C856.852 405.592 852.788 404.604 848.554 404.604V407.489ZM857.926 408.659V416.861H860.811V408.659H857.926ZM860.203 415.685C857.106 413.489 853.005 412.023 848.867 412.023V414.908C852.358 414.908 855.884 416.159 858.534 418.038L860.203 415.685ZM848.867 412.023C840.689 412.023 834.887 417.804 834.887 425.481H837.771C837.771 419.471 842.209 414.908 848.867 414.908V412.023ZM834.887 425.481C834.887 429.265 836.278 432.677 838.81 435.142C841.343 437.608 844.931 439.044 849.181 439.044V436.16C845.595 436.16 842.757 434.958 840.822 433.075C838.887 431.19 837.771 428.542 837.771 425.481H834.887ZM849.181 439.044C853.379 439.044 857.377 437.573 860.52 435.328L858.844 432.98C856.136 434.914 852.715 436.16 849.181 436.16V439.044ZM858.24 434.154V442.304H861.124V434.154H858.24ZM888.362 443.578C877.911 443.578 870.057 435.745 870.057 425.534H867.172C867.172 437.369 876.348 446.463 888.362 446.463V443.578ZM870.057 425.534C870.057 415.322 877.911 407.489 888.362 407.489V404.604C876.348 404.604 867.172 413.698 867.172 425.534H870.057ZM888.362 407.489C898.813 407.489 906.668 415.322 906.668 425.534H909.553C909.553 413.698 900.376 404.604 888.362 404.604V407.489ZM906.668 425.534C906.668 435.745 898.813 443.578 888.362 443.578V446.463C900.376 446.463 909.553 437.369 909.553 425.534H906.668ZM888.362 439.044C895.772 439.044 901.246 432.984 901.246 425.534H898.361C898.361 431.562 894.013 436.16 888.362 436.16V439.044ZM901.246 425.534C901.246 418.083 895.772 412.023 888.362 412.023V414.908C894.013 414.908 898.361 419.505 898.361 425.534H901.246ZM888.362 412.023C880.952 412.023 875.478 418.083 875.478 425.534H878.363C878.363 419.505 882.711 414.908 888.362 414.908V412.023ZM875.478 425.534C875.478 432.984 880.952 439.044 888.362 439.044V436.16C882.711 436.16 878.363 431.562 878.363 425.534H875.478ZM919.093 444.446H917.651V445.888H919.093V444.446ZM919.093 406.621V405.179H917.651V406.621H919.093ZM926.93 406.621L928.088 405.761L927.655 405.179H926.93V406.621ZM938.267 421.877L937.109 422.737L937.111 422.739L938.267 421.877ZM945.372 431.646L944.198 432.485L944.63 433.089H945.372V431.646ZM945.476 431.646V433.089H946.94L946.919 431.626L945.476 431.646ZM945.372 406.621V405.179H943.93V406.621H945.372ZM953.365 406.621H954.808V405.179H953.365V406.621ZM953.365 444.446V445.888H954.808V444.446H953.365ZM945.529 444.446L944.371 445.306L944.803 445.888H945.529V444.446ZM934.192 429.191L935.349 428.33L935.348 428.328L934.192 429.191ZM927.087 419.421L928.26 418.583L927.829 417.979H927.087V419.421ZM926.982 419.421V417.979H925.519L925.54 419.442L926.982 419.421ZM927.087 444.446V445.888H928.529V444.446H927.087ZM920.536 444.446V406.621H917.651V444.446H920.536ZM919.093 408.064H926.93V405.179H919.093V408.064ZM925.772 407.482L937.109 422.737L939.425 421.016L928.088 405.761L925.772 407.482ZM937.111 422.739C939.557 426.019 941.85 429.196 944.198 432.485L946.546 430.808C944.192 427.513 941.887 424.317 939.423 421.014L937.111 422.739ZM945.372 433.089H945.476V430.204H945.372V433.089ZM946.919 431.626C946.866 427.967 946.814 424.32 946.814 420.675H943.93C943.93 424.344 943.982 428.011 944.034 431.667L946.919 431.626ZM946.814 420.675V406.621H943.93V420.675H946.814ZM945.372 408.064H953.365V405.179H945.372V408.064ZM951.923 406.621V444.446H954.808V406.621H951.923ZM953.365 443.004H945.529V445.888H953.365V443.004ZM946.686 443.586L935.349 428.33L933.034 430.051L944.371 445.306L946.686 443.586ZM935.348 428.328C932.901 425.049 930.609 421.871 928.26 418.583L925.913 420.26C928.266 423.554 930.571 426.75 933.036 430.053L935.348 428.328ZM927.087 417.979H926.982V420.864H927.087V417.979ZM925.54 419.442C925.592 423.101 925.644 426.747 925.644 430.392H928.529C928.529 426.723 928.477 423.056 928.424 419.401L925.54 419.442ZM925.644 430.392V444.446H928.529V430.392H925.644ZM927.087 443.004H919.093V445.888H927.087V443.004ZM965.125 433.684L965.945 432.497L963.682 430.933V433.684H965.125ZM979.544 430.131L980.08 428.792L979.544 430.131ZM969.356 426.422L970.083 425.176L969.356 426.422ZM989.261 408.711H990.704V407.838L989.931 407.433L989.261 408.711ZM989.261 416.757L988.503 417.983L990.704 419.345V416.757H989.261ZM976.357 420.57L975.832 421.914L976.357 420.57ZM986.597 424.28L985.855 425.517L986.597 424.28ZM965.125 442.043H963.682V442.906L964.443 443.314L965.125 442.043ZM964.304 434.87C968.786 437.968 974.194 439.253 977.402 439.253V436.369C974.759 436.369 969.927 435.25 965.945 432.497L964.304 434.87ZM977.402 439.253C979.25 439.253 980.954 438.904 982.237 438.019C983.598 437.08 984.33 435.644 984.33 433.893H981.445C981.445 434.754 981.133 435.276 980.599 435.644C979.988 436.065 978.95 436.369 977.402 436.369V439.253ZM984.33 433.893C984.33 432.679 983.985 431.608 983.163 430.707C982.399 429.869 981.319 429.288 980.08 428.792L979.008 431.47C980.12 431.915 980.712 432.3 981.032 432.651C981.294 432.938 981.445 433.278 981.445 433.893H984.33ZM980.08 428.792C978.836 428.294 976.933 427.782 975.174 427.233C973.325 426.655 971.5 426.002 970.083 425.176L968.63 427.668C970.348 428.67 972.441 429.401 974.314 429.986C976.278 430.6 977.901 431.027 979.008 431.47L980.08 428.792ZM970.083 425.176C968.694 424.365 967.696 423.4 967.034 422.226C966.371 421.049 965.992 419.568 965.992 417.645H963.108C963.108 419.953 963.565 421.946 964.521 423.643C965.479 425.342 966.884 426.65 968.63 427.668L970.083 425.176ZM965.992 417.645C965.992 414.389 967.161 411.905 969.122 410.215C971.109 408.504 974.048 407.489 977.768 407.489V404.604C973.546 404.604 969.877 405.758 967.239 408.03C964.577 410.324 963.108 413.639 963.108 417.645H965.992ZM977.768 407.489C981.284 407.489 985.54 408.39 988.592 409.989L989.931 407.433C986.4 405.584 981.67 404.604 977.768 404.604V407.489ZM987.819 408.711V416.757H990.704V408.711H987.819ZM990.02 415.53C985.829 412.938 981.127 411.814 977.977 411.814V414.699C980.573 414.699 984.753 415.664 988.503 417.983L990.02 415.53ZM977.977 411.814C976.281 411.814 974.687 412.139 973.475 412.966C972.187 413.843 971.467 415.197 971.467 416.861H974.351C974.351 416.122 974.624 415.673 975.099 415.349C975.65 414.974 976.59 414.699 977.977 414.699V411.814ZM971.467 416.861C971.467 418.098 971.839 419.166 972.695 420.051C973.48 420.863 974.583 421.425 975.832 421.914L976.883 419.227C975.728 418.775 975.107 418.397 974.769 418.047C974.501 417.769 974.351 417.453 974.351 416.861H971.467ZM975.832 421.914C977.097 422.409 979.022 422.911 980.779 423.451C982.631 424.021 984.447 424.672 985.855 425.517L987.339 423.043C985.612 422.007 983.51 421.273 981.627 420.694C979.648 420.085 978.02 419.672 976.883 419.227L975.832 421.914ZM985.855 425.517C988.486 427.095 989.804 429.612 989.804 433.161H992.689C992.689 428.77 990.977 425.226 987.339 423.043L985.855 425.517ZM989.804 433.161C989.804 436.516 988.588 439.062 986.546 440.792C984.476 442.547 981.416 443.578 977.559 443.578V446.463C981.904 446.463 985.688 445.3 988.411 442.993C991.163 440.661 992.689 437.278 992.689 433.161H989.804ZM977.559 443.578C973.841 443.578 969.171 442.576 965.806 440.772L964.443 443.314C968.288 445.376 973.44 446.463 977.559 446.463V443.578ZM966.567 442.043V433.684H963.682V442.043H966.567ZM1011.12 444.446H1009.67V445.888H1011.12V444.446ZM1011.12 413.883H1012.56V412.441H1011.12V413.883ZM998.891 413.883H997.448V415.326H998.891V413.883ZM998.891 406.621V405.179H997.448V406.621H998.891ZM1031.65 406.621H1033.09V405.179H1031.65V406.621ZM1031.65 413.883V415.326H1033.09V413.883H1031.65ZM1019.42 413.883V412.441H1017.98V413.883H1019.42ZM1019.42 444.446V445.888H1020.86V444.446H1019.42ZM1012.56 444.446V413.883H1009.67V444.446H1012.56ZM1011.12 412.441H998.891V415.326H1011.12V412.441ZM1000.33 413.883V406.621H997.448V413.883H1000.33ZM998.891 408.064H1031.65V405.179H998.891V408.064ZM1030.21 406.621V413.883H1033.09V406.621H1030.21ZM1031.65 412.441H1019.42V415.326H1031.65V412.441ZM1017.98 413.883V444.446H1020.86V413.883H1017.98ZM1019.42 443.004H1011.12V445.888H1019.42V443.004ZM1041.64 444.446H1040.2V445.888H1041.64V444.446ZM1041.64 406.621V405.179H1040.2V406.621H1041.64ZM1065.41 409.181L1064.57 410.352L1065.41 409.181ZM1062.48 428.877L1061.96 427.532L1060.29 428.178L1061.28 429.673L1062.48 428.877ZM1072.78 444.446V445.888H1075.46L1073.98 443.651L1072.78 444.446ZM1063.27 444.446L1062.06 445.23L1062.48 445.888H1063.27V444.446ZM1053.97 430.079L1055.18 429.295L1054.75 428.636H1053.97V430.079ZM1049.94 430.079V428.636H1048.5V430.079H1049.94ZM1049.94 444.446V445.888H1051.39V444.446H1049.94ZM1049.94 423.496H1048.5V424.939H1049.94V423.496ZM1059.71 422.451L1058.9 421.259L1059.71 422.451ZM1049.94 413.727V412.284H1048.5V413.727H1049.94ZM1043.08 444.446V406.621H1040.2V444.446H1043.08ZM1041.64 408.064H1055.53V405.179H1041.64V408.064ZM1055.53 408.064C1059.46 408.064 1062.3 408.72 1064.57 410.352L1066.25 408.011C1063.29 405.881 1059.76 405.179 1055.53 405.179V408.064ZM1064.57 410.352C1066.79 411.956 1068.36 414.598 1068.36 418.272H1071.24C1071.24 413.691 1069.25 410.168 1066.25 408.011L1064.57 410.352ZM1068.36 418.272C1068.36 422.675 1066.02 425.965 1061.96 427.532L1063 430.223C1068.14 428.237 1071.24 423.899 1071.24 418.272H1068.36ZM1061.28 429.673L1071.57 445.241L1073.98 443.651L1063.69 428.082L1061.28 429.673ZM1072.78 443.004H1063.27V445.888H1072.78V443.004ZM1064.48 443.662L1055.18 429.295L1052.76 430.863L1062.06 445.23L1064.48 443.662ZM1053.97 428.636H1049.94V431.521H1053.97V428.636ZM1048.5 430.079V444.446H1051.39V430.079H1048.5ZM1049.94 443.004H1041.64V445.888H1049.94V443.004ZM1049.94 424.939H1055.06V422.054H1049.94V424.939ZM1055.06 424.939C1057.25 424.939 1059.01 424.675 1060.53 423.643L1058.9 421.259C1058.12 421.795 1057.06 422.054 1055.06 422.054V424.939ZM1060.53 423.643C1062.17 422.523 1062.93 420.547 1062.93 418.637H1060.05C1060.05 419.863 1059.56 420.813 1058.9 421.259L1060.53 423.643ZM1062.93 418.637C1062.93 416.589 1062.1 414.7 1060.55 413.598L1058.88 415.945C1059.53 416.41 1060.05 417.342 1060.05 418.637H1062.93ZM1060.55 413.598C1059.07 412.541 1057.22 412.284 1055.06 412.284V415.169C1057.09 415.169 1058.16 415.435 1058.88 415.945L1060.55 413.598ZM1055.06 412.284H1049.94V415.169H1055.06V412.284ZM1048.5 413.727V423.496H1051.39V413.727H1048.5ZM1081.15 406.621V405.179H1079.71V406.621H1081.15ZM1089.46 406.621H1090.9V405.179H1089.46V406.621ZM1091.23 434.624L1090.09 435.505L1091.23 434.624ZM1106.12 406.621V405.179H1104.68V406.621H1106.12ZM1114.12 406.621H1115.56V405.179H1114.12V406.621ZM1110.46 439.796L1109.37 438.85L1110.46 439.796ZM1084.81 439.796L1083.7 440.723L1084.81 439.796ZM1081.15 408.064H1089.46V405.179H1081.15V408.064ZM1088.02 406.621V427.676H1090.9V406.621H1088.02ZM1088.02 427.676C1088.02 430.47 1088.38 433.283 1090.09 435.505L1092.38 433.743C1091.27 432.308 1090.9 430.315 1090.9 427.676H1088.02ZM1090.09 435.505C1091.8 437.725 1094.39 438.992 1097.76 438.992V436.107C1095.18 436.107 1093.49 435.18 1092.38 433.743L1090.09 435.505ZM1097.76 438.992C1101.2 438.992 1103.73 437.721 1105.44 435.505L1103.15 433.743C1102.04 435.184 1100.39 436.107 1097.76 436.107V438.992ZM1105.44 435.505C1107.14 433.295 1107.57 430.497 1107.57 427.676H1104.68C1104.68 430.287 1104.27 432.296 1103.15 433.743L1105.44 435.505ZM1107.57 427.676V406.621H1104.68V427.676H1107.57ZM1106.12 408.064H1114.12V405.179H1106.12V408.064ZM1112.67 406.621V428.198H1115.56V406.621H1112.67ZM1112.67 428.198C1112.67 432.207 1111.82 436.034 1109.37 438.85L1111.55 440.742C1114.64 437.185 1115.56 432.548 1115.56 428.198H1112.67ZM1109.37 438.85C1106.92 441.675 1102.9 443.578 1097.61 443.578V446.463C1103.6 446.463 1108.47 444.291 1111.55 440.742L1109.37 438.85ZM1097.61 443.578C1092.55 443.578 1088.3 441.711 1085.91 438.869L1083.7 440.723C1086.75 444.36 1091.9 446.463 1097.61 446.463V443.578ZM1085.91 438.869C1083.49 435.98 1082.59 432.335 1082.59 428.198H1079.71C1079.71 432.734 1080.69 437.135 1083.7 440.723L1085.91 438.869ZM1082.59 428.198V406.621H1079.71V428.198H1082.59ZM1156.44 442.304L1157.16 443.55L1157.88 443.132V442.304H1156.44ZM1156.12 408.659H1157.57V407.814L1156.83 407.401L1156.12 408.659ZM1156.12 416.861L1155.29 418.038L1157.57 419.652V416.861H1156.12ZM1156.44 434.154H1157.88V431.351L1155.6 432.98L1156.44 434.154ZM1155.71 441.058C1152.85 442.726 1148.94 443.578 1145.26 443.578V446.463C1149.31 446.463 1153.75 445.539 1157.16 443.55L1155.71 441.058ZM1145.26 443.578C1133.87 443.578 1126.17 435.808 1126.17 425.638H1123.28C1123.28 437.515 1132.4 446.463 1145.26 446.463V443.578ZM1126.17 425.638C1126.17 415.403 1133.94 407.489 1145.31 407.489V404.604C1132.44 404.604 1123.28 413.721 1123.28 425.638H1126.17ZM1145.31 407.489C1149.12 407.489 1152.68 408.382 1155.42 409.917L1156.83 407.401C1153.61 405.592 1149.54 404.604 1145.31 404.604V407.489ZM1154.68 408.659V416.861H1157.57V408.659H1154.68ZM1156.96 415.685C1153.86 413.489 1149.76 412.023 1145.62 412.023V414.908C1149.11 414.908 1152.64 416.159 1155.29 418.038L1156.96 415.685ZM1145.62 412.023C1137.44 412.023 1131.64 417.804 1131.64 425.481H1134.53C1134.53 419.471 1138.96 414.908 1145.62 414.908V412.023ZM1131.64 425.481C1131.64 429.265 1133.03 432.677 1135.56 435.142C1138.1 437.608 1141.68 439.044 1145.94 439.044V436.16C1142.35 436.16 1139.51 434.958 1137.58 433.075C1135.64 431.19 1134.53 428.542 1134.53 425.481H1131.64ZM1145.94 439.044C1150.13 439.044 1154.13 437.573 1157.27 435.328L1155.6 432.98C1152.89 434.914 1149.47 436.16 1145.94 436.16V439.044ZM1154.99 434.154V442.304H1157.88V434.154H1154.99ZM1177.01 444.446H1175.57V445.888H1177.01V444.446ZM1177.01 413.883H1178.45V412.441H1177.01V413.883ZM1164.78 413.883H1163.34V415.326H1164.78V413.883ZM1164.78 406.621V405.179H1163.34V406.621H1164.78ZM1197.54 406.621H1198.98V405.179H1197.54V406.621ZM1197.54 413.883V415.326H1198.98V413.883H1197.54ZM1185.32 413.883V412.441H1183.87V413.883H1185.32ZM1185.32 444.446V445.888H1186.76V444.446H1185.32ZM1178.45 444.446V413.883H1175.57V444.446H1178.45ZM1177.01 412.441H1164.78V415.326H1177.01V412.441ZM1166.23 413.883V406.621H1163.34V413.883H1166.23ZM1164.78 408.064H1197.54V405.179H1164.78V408.064ZM1196.1 406.621V413.883H1198.98V406.621H1196.1ZM1197.54 412.441H1185.32V415.326H1197.54V412.441ZM1183.87 413.883V444.446H1186.76V413.883H1183.87ZM1185.32 443.004H1177.01V445.888H1185.32V443.004ZM1207.53 444.446H1206.09V445.888H1207.53V444.446ZM1207.53 406.621V405.179H1206.09V406.621H1207.53ZM1215.84 406.621H1217.28V405.179H1215.84V406.621ZM1215.84 444.446V445.888H1217.28V444.446H1215.84ZM1208.97 444.446V406.621H1206.09V444.446H1208.97ZM1207.53 408.064H1215.84V405.179H1207.53V408.064ZM1214.4 406.621V444.446H1217.28V406.621H1214.4ZM1215.84 443.004H1207.53V445.888H1215.84V443.004ZM1246.56 443.578C1236.11 443.578 1228.25 435.745 1228.25 425.534H1225.37C1225.37 437.369 1234.54 446.463 1246.56 446.463V443.578ZM1228.25 425.534C1228.25 415.322 1236.11 407.489 1246.56 407.489V404.604C1234.54 404.604 1225.37 413.698 1225.37 425.534H1228.25ZM1246.56 407.489C1257.01 407.489 1264.86 415.322 1264.86 425.534H1267.75C1267.75 413.698 1258.57 404.604 1246.56 404.604V407.489ZM1264.86 425.534C1264.86 435.745 1257.01 443.578 1246.56 443.578V446.463C1258.57 446.463 1267.75 437.369 1267.75 425.534H1264.86ZM1246.56 439.044C1253.97 439.044 1259.44 432.984 1259.44 425.534H1256.56C1256.56 431.562 1252.21 436.16 1246.56 436.16V439.044ZM1259.44 425.534C1259.44 418.083 1253.97 412.023 1246.56 412.023V414.908C1252.21 414.908 1256.56 419.505 1256.56 425.534H1259.44ZM1246.56 412.023C1239.15 412.023 1233.67 418.083 1233.67 425.534H1236.56C1236.56 419.505 1240.91 414.908 1246.56 414.908V412.023ZM1233.67 425.534C1233.67 432.984 1239.15 439.044 1246.56 439.044V436.16C1240.91 436.16 1236.56 431.562 1236.56 425.534H1233.67ZM1277.29 444.446H1275.85V445.888H1277.29V444.446ZM1277.29 406.621V405.179H1275.85V406.621H1277.29ZM1285.13 406.621L1286.28 405.761L1285.85 405.179H1285.13V406.621ZM1296.46 421.877L1295.3 422.737L1295.31 422.739L1296.46 421.877ZM1303.57 431.646L1302.39 432.485L1302.83 433.089H1303.57V431.646ZM1303.67 431.646V433.089H1305.14L1305.11 431.626L1303.67 431.646ZM1303.57 406.621V405.179H1302.13V406.621H1303.57ZM1311.56 406.621H1313V405.179H1311.56V406.621ZM1311.56 444.446V445.888H1313V444.446H1311.56ZM1303.72 444.446L1302.57 445.306L1303 445.888H1303.72V444.446ZM1292.39 429.191L1293.55 428.33L1293.54 428.328L1292.39 429.191ZM1285.28 419.421L1286.46 418.583L1286.02 417.979H1285.28V419.421ZM1285.18 419.421V417.979H1283.71L1283.74 419.442L1285.18 419.421ZM1285.28 444.446V445.888H1286.72V444.446H1285.28ZM1278.73 444.446V406.621H1275.85V444.446H1278.73ZM1277.29 408.064H1285.13V405.179H1277.29V408.064ZM1283.97 407.482L1295.3 422.737L1297.62 421.016L1286.28 405.761L1283.97 407.482ZM1295.31 422.739C1297.75 426.019 1300.05 429.196 1302.39 432.485L1304.74 430.808C1302.39 427.513 1300.08 424.317 1297.62 421.014L1295.31 422.739ZM1303.57 433.089H1303.67V430.204H1303.57V433.089ZM1305.11 431.626C1305.06 427.967 1305.01 424.32 1305.01 420.675H1302.13C1302.13 424.344 1302.18 428.011 1302.23 431.667L1305.11 431.626ZM1305.01 420.675V406.621H1302.13V420.675H1305.01ZM1303.57 408.064H1311.56V405.179H1303.57V408.064ZM1310.12 406.621V444.446H1313V406.621H1310.12ZM1311.56 443.004H1303.72V445.888H1311.56V443.004ZM1304.88 443.586L1293.55 428.33L1291.23 430.051L1302.57 445.306L1304.88 443.586ZM1293.54 428.328C1291.1 425.049 1288.8 421.871 1286.46 418.583L1284.11 420.26C1286.46 423.554 1288.77 426.75 1291.23 430.053L1293.54 428.328ZM1285.28 417.979H1285.18V420.864H1285.28V417.979ZM1283.74 419.442C1283.79 423.101 1283.84 426.747 1283.84 430.392H1286.72C1286.72 426.723 1286.67 423.056 1286.62 419.401L1283.74 419.442ZM1283.84 430.392V444.446H1286.72V430.392H1283.84ZM1285.28 443.004H1277.29V445.888H1285.28V443.004Z" fill="white" mask="url(#path-7-outside-4_7_31)"/>
<mask id="path-9-outside-5_7_31" maskUnits="userSpaceOnUse" x="1345.15" y="404.446" width="177" height="43" fill="black">
<rect fill="white" x="1345.15" y="404.446" width="177" height="43"/>
<path d="M1378.64 442.304C1375.5 444.133 1371.32 445.021 1367.46 445.021C1355.34 445.021 1346.93 436.662 1346.93 425.638C1346.93 414.562 1355.39 406.047 1367.51 406.047C1371.53 406.047 1375.35 406.987 1378.33 408.659V416.861C1375.45 414.824 1371.64 413.465 1367.82 413.465C1360.41 413.465 1355.29 418.637 1355.29 425.481C1355.29 432.325 1360.3 437.602 1368.14 437.602C1372 437.602 1375.71 436.244 1378.64 434.154V442.304ZM1407.32 445.021C1396.09 445.021 1387.57 436.557 1387.57 425.534C1387.57 414.51 1396.09 406.047 1407.32 406.047C1418.55 406.047 1427.07 414.51 1427.07 425.534C1427.07 436.557 1418.55 445.021 1407.32 445.021ZM1407.32 437.602C1413.85 437.602 1418.76 432.273 1418.76 425.534C1418.76 418.794 1413.85 413.465 1407.32 413.465C1400.79 413.465 1395.88 418.794 1395.88 425.534C1395.88 432.273 1400.79 437.602 1407.32 437.602ZM1438.05 444.446V406.621H1451.95C1456.02 406.621 1459.21 407.301 1461.82 409.181C1464.43 411.062 1466.21 414.144 1466.21 418.272C1466.21 423.287 1463.49 427.101 1458.9 428.877L1469.19 444.446H1459.68L1450.38 430.079H1446.36V444.446H1438.05ZM1446.36 423.496H1451.48C1453.57 423.496 1454.98 423.235 1456.13 422.451C1457.28 421.668 1457.9 420.205 1457.9 418.637C1457.9 416.966 1457.22 415.555 1456.13 414.771C1455.03 413.988 1453.57 413.727 1451.48 413.727H1446.36V423.496ZM1477.93 444.446V406.621H1491.41C1495.74 406.621 1499.09 407.301 1501.86 409.338C1504.63 411.376 1506.51 414.667 1506.51 418.951C1506.51 423.235 1504.63 426.526 1501.86 428.564C1499.09 430.601 1495.74 431.333 1491.41 431.333H1486.24V444.446H1477.93ZM1486.24 424.332H1491.09C1493.45 424.332 1495.01 424.071 1496.21 423.235C1497.42 422.399 1498.2 420.832 1498.2 419.055C1498.2 417.227 1497.42 415.66 1496.21 414.824C1495.01 413.988 1493.45 413.727 1491.09 413.727H1486.24V424.332ZM1515.41 445.021C1512.85 445.021 1510.71 442.983 1510.71 440.319C1510.71 437.654 1512.85 435.617 1515.41 435.617C1517.97 435.617 1520.12 437.654 1520.12 440.319C1520.12 442.983 1517.97 445.021 1515.41 445.021Z"/>
</mask>
<path d="M1378.64 442.304C1375.5 444.133 1371.32 445.021 1367.46 445.021C1355.34 445.021 1346.93 436.662 1346.93 425.638C1346.93 414.562 1355.39 406.047 1367.51 406.047C1371.53 406.047 1375.35 406.987 1378.33 408.659V416.861C1375.45 414.824 1371.64 413.465 1367.82 413.465C1360.41 413.465 1355.29 418.637 1355.29 425.481C1355.29 432.325 1360.3 437.602 1368.14 437.602C1372 437.602 1375.71 436.244 1378.64 434.154V442.304ZM1407.32 445.021C1396.09 445.021 1387.57 436.557 1387.57 425.534C1387.57 414.51 1396.09 406.047 1407.32 406.047C1418.55 406.047 1427.07 414.51 1427.07 425.534C1427.07 436.557 1418.55 445.021 1407.32 445.021ZM1407.32 437.602C1413.85 437.602 1418.76 432.273 1418.76 425.534C1418.76 418.794 1413.85 413.465 1407.32 413.465C1400.79 413.465 1395.88 418.794 1395.88 425.534C1395.88 432.273 1400.79 437.602 1407.32 437.602ZM1438.05 444.446V406.621H1451.95C1456.02 406.621 1459.21 407.301 1461.82 409.181C1464.43 411.062 1466.21 414.144 1466.21 418.272C1466.21 423.287 1463.49 427.101 1458.9 428.877L1469.19 444.446H1459.68L1450.38 430.079H1446.36V444.446H1438.05ZM1446.36 423.496H1451.48C1453.57 423.496 1454.98 423.235 1456.13 422.451C1457.28 421.668 1457.9 420.205 1457.9 418.637C1457.9 416.966 1457.22 415.555 1456.13 414.771C1455.03 413.988 1453.57 413.727 1451.48 413.727H1446.36V423.496ZM1477.93 444.446V406.621H1491.41C1495.74 406.621 1499.09 407.301 1501.86 409.338C1504.63 411.376 1506.51 414.667 1506.51 418.951C1506.51 423.235 1504.63 426.526 1501.86 428.564C1499.09 430.601 1495.74 431.333 1491.41 431.333H1486.24V444.446H1477.93ZM1486.24 424.332H1491.09C1493.45 424.332 1495.01 424.071 1496.21 423.235C1497.42 422.399 1498.2 420.832 1498.2 419.055C1498.2 417.227 1497.42 415.66 1496.21 414.824C1495.01 413.988 1493.45 413.727 1491.09 413.727H1486.24V424.332ZM1515.41 445.021C1512.85 445.021 1510.71 442.983 1510.71 440.319C1510.71 437.654 1512.85 435.617 1515.41 435.617C1517.97 435.617 1520.12 437.654 1520.12 440.319C1520.12 442.983 1517.97 445.021 1515.41 445.021Z" fill="white"/>
<path d="M1378.64 442.304L1379.37 443.55L1380.08 443.132V442.304H1378.64ZM1378.33 408.659H1379.77V407.814L1379.03 407.401L1378.33 408.659ZM1378.33 416.861L1377.49 418.038L1379.77 419.652V416.861H1378.33ZM1378.64 434.154H1380.08V431.351L1377.8 432.98L1378.64 434.154ZM1377.91 441.058C1375.05 442.726 1371.14 443.578 1367.46 443.578V446.463C1371.51 446.463 1375.96 445.539 1379.37 443.55L1377.91 441.058ZM1367.46 443.578C1356.08 443.578 1348.37 435.808 1348.37 425.638H1345.48C1345.48 437.515 1354.6 446.463 1367.46 446.463V443.578ZM1348.37 425.638C1348.37 415.403 1356.14 407.489 1367.51 407.489V404.604C1354.64 404.604 1345.48 413.721 1345.48 425.638H1348.37ZM1367.51 407.489C1371.32 407.489 1374.89 408.382 1377.62 409.917L1379.03 407.401C1375.81 405.592 1371.75 404.604 1367.51 404.604V407.489ZM1376.88 408.659V416.861H1379.77V408.659H1376.88ZM1379.16 415.685C1376.06 413.489 1371.96 412.023 1367.82 412.023V414.908C1371.32 414.908 1374.84 416.159 1377.49 418.038L1379.16 415.685ZM1367.82 412.023C1359.65 412.023 1353.84 417.804 1353.84 425.481H1356.73C1356.73 419.471 1361.17 414.908 1367.82 414.908V412.023ZM1353.84 425.481C1353.84 429.265 1355.24 432.677 1357.77 435.142C1360.3 437.608 1363.89 439.044 1368.14 439.044V436.16C1364.55 436.16 1361.71 434.958 1359.78 433.075C1357.84 431.19 1356.73 428.542 1356.73 425.481H1353.84ZM1368.14 439.044C1372.34 439.044 1376.33 437.573 1379.48 435.328L1377.8 432.98C1375.09 434.914 1371.67 436.16 1368.14 436.16V439.044ZM1377.2 434.154V442.304H1380.08V434.154H1377.2ZM1407.32 443.578C1396.87 443.578 1389.01 435.745 1389.01 425.534H1386.13C1386.13 437.369 1395.31 446.463 1407.32 446.463V443.578ZM1389.01 425.534C1389.01 415.322 1396.87 407.489 1407.32 407.489V404.604C1395.31 404.604 1386.13 413.698 1386.13 425.534H1389.01ZM1407.32 407.489C1417.77 407.489 1425.63 415.322 1425.63 425.534H1428.51C1428.51 413.698 1419.33 404.604 1407.32 404.604V407.489ZM1425.63 425.534C1425.63 435.745 1417.77 443.578 1407.32 443.578V446.463C1419.33 446.463 1428.51 437.369 1428.51 425.534H1425.63ZM1407.32 439.044C1414.73 439.044 1420.2 432.984 1420.2 425.534H1417.32C1417.32 431.562 1412.97 436.16 1407.32 436.16V439.044ZM1420.2 425.534C1420.2 418.083 1414.73 412.023 1407.32 412.023V414.908C1412.97 414.908 1417.32 419.505 1417.32 425.534H1420.2ZM1407.32 412.023C1399.91 412.023 1394.44 418.083 1394.44 425.534H1397.32C1397.32 419.505 1401.67 414.908 1407.32 414.908V412.023ZM1394.44 425.534C1394.44 432.984 1399.91 439.044 1407.32 439.044V436.16C1401.67 436.16 1397.32 431.562 1397.32 425.534H1394.44ZM1438.05 444.446H1436.61V445.888H1438.05V444.446ZM1438.05 406.621V405.179H1436.61V406.621H1438.05ZM1461.82 409.181L1460.98 410.352L1461.82 409.181ZM1458.9 428.877L1458.38 427.532L1456.7 428.178L1457.69 429.673L1458.9 428.877ZM1469.19 444.446V445.888H1471.87L1470.39 443.651L1469.19 444.446ZM1459.68 444.446L1458.47 445.23L1458.89 445.888H1459.68V444.446ZM1450.38 430.079L1451.59 429.295L1451.16 428.636H1450.38V430.079ZM1446.36 430.079V428.636H1444.91V430.079H1446.36ZM1446.36 444.446V445.888H1447.8V444.446H1446.36ZM1446.36 423.496H1444.91V424.939H1446.36V423.496ZM1456.13 422.451L1455.31 421.259L1456.13 422.451ZM1446.36 413.727V412.284H1444.91V413.727H1446.36ZM1439.49 444.446V406.621H1436.61V444.446H1439.49ZM1438.05 408.064H1451.95V405.179H1438.05V408.064ZM1451.95 408.064C1455.87 408.064 1458.71 408.72 1460.98 410.352L1462.66 408.011C1459.71 405.881 1456.17 405.179 1451.95 405.179V408.064ZM1460.98 410.352C1463.21 411.956 1464.77 414.598 1464.77 418.272H1467.65C1467.65 413.691 1465.66 410.168 1462.66 408.011L1460.98 410.352ZM1464.77 418.272C1464.77 422.675 1462.43 425.965 1458.38 427.532L1459.42 430.223C1464.55 428.237 1467.65 423.899 1467.65 418.272H1464.77ZM1457.69 429.673L1467.98 445.241L1470.39 443.651L1460.1 428.082L1457.69 429.673ZM1469.19 443.004H1459.68V445.888H1469.19V443.004ZM1460.89 443.662L1451.59 429.295L1449.17 430.863L1458.47 445.23L1460.89 443.662ZM1450.38 428.636H1446.36V431.521H1450.38V428.636ZM1444.91 430.079V444.446H1447.8V430.079H1444.91ZM1446.36 443.004H1438.05V445.888H1446.36V443.004ZM1446.36 424.939H1451.48V422.054H1446.36V424.939ZM1451.48 424.939C1453.66 424.939 1455.43 424.675 1456.94 423.643L1455.31 421.259C1454.53 421.795 1453.48 422.054 1451.48 422.054V424.939ZM1456.94 423.643C1458.58 422.523 1459.35 420.547 1459.35 418.637H1456.46C1456.46 419.863 1455.97 420.813 1455.31 421.259L1456.94 423.643ZM1459.35 418.637C1459.35 416.589 1458.51 414.7 1456.97 413.598L1455.29 415.945C1455.94 416.41 1456.46 417.342 1456.46 418.637H1459.35ZM1456.97 413.598C1455.49 412.541 1453.64 412.284 1451.48 412.284V415.169C1453.5 415.169 1454.57 415.435 1455.29 415.945L1456.97 413.598ZM1451.48 412.284H1446.36V415.169H1451.48V412.284ZM1444.91 413.727V423.496H1447.8V413.727H1444.91ZM1477.93 444.446H1476.49V445.888H1477.93V444.446ZM1477.93 406.621V405.179H1476.49V406.621H1477.93ZM1501.86 409.338L1502.71 408.176V408.176L1501.86 409.338ZM1501.86 428.564L1502.71 429.726L1501.86 428.564ZM1486.24 431.333V429.89H1484.79V431.333H1486.24ZM1486.24 444.446V445.888H1487.68V444.446H1486.24ZM1486.24 424.332H1484.79V425.774H1486.24V424.332ZM1496.21 414.824L1497.04 413.64V413.64L1496.21 414.824ZM1486.24 413.727V412.284H1484.79V413.727H1486.24ZM1479.37 444.446V406.621H1476.49V444.446H1479.37ZM1477.93 408.064H1491.41V405.179H1477.93V408.064ZM1491.41 408.064C1495.61 408.064 1498.59 408.725 1501 410.5L1502.71 408.176C1499.59 405.876 1495.88 405.179 1491.41 405.179V408.064ZM1501 410.5C1503.4 412.266 1505.06 415.126 1505.06 418.951H1507.95C1507.95 414.208 1505.85 410.485 1502.71 408.176L1501 410.5ZM1505.06 418.951C1505.06 422.776 1503.4 425.636 1501 427.402L1502.71 429.726C1505.85 427.417 1507.95 423.694 1507.95 418.951H1505.06ZM1501 427.402C1498.58 429.184 1495.59 429.89 1491.41 429.89V432.775C1495.9 432.775 1499.59 432.019 1502.71 429.726L1501 427.402ZM1491.41 429.89H1486.24V432.775H1491.41V429.89ZM1484.79 431.333V444.446H1487.68V431.333H1484.79ZM1486.24 443.004H1477.93V445.888H1486.24V443.004ZM1486.24 425.774H1491.09V422.89H1486.24V425.774ZM1491.09 425.774C1493.5 425.774 1495.45 425.522 1497.04 424.419L1495.39 422.051C1494.57 422.619 1493.39 422.89 1491.09 422.89V425.774ZM1497.04 424.419C1498.68 423.274 1499.64 421.231 1499.64 419.055H1496.76C1496.76 420.432 1496.15 421.524 1495.39 422.051L1497.04 424.419ZM1499.64 419.055C1499.64 416.836 1498.69 414.788 1497.04 413.64L1495.39 416.008C1496.14 416.531 1496.76 417.618 1496.76 419.055H1499.64ZM1497.04 413.64C1495.45 412.536 1493.5 412.284 1491.09 412.284V415.169C1493.39 415.169 1494.57 415.439 1495.39 416.008L1497.04 413.64ZM1491.09 412.284H1486.24V415.169H1491.09V412.284ZM1484.79 413.727V424.332H1487.68V413.727H1484.79ZM1515.41 443.578C1513.63 443.578 1512.16 442.166 1512.16 440.319H1509.27C1509.27 443.801 1512.08 446.463 1515.41 446.463V443.578ZM1512.16 440.319C1512.16 438.472 1513.63 437.059 1515.41 437.059V434.174C1512.08 434.174 1509.27 436.837 1509.27 440.319H1512.16ZM1515.41 437.059C1517.2 437.059 1518.67 438.472 1518.67 440.319H1521.56C1521.56 436.837 1518.75 434.174 1515.41 434.174V437.059ZM1518.67 440.319C1518.67 442.166 1517.2 443.578 1515.41 443.578V446.463C1518.75 446.463 1521.56 443.801 1521.56 440.319H1518.67Z" fill="white" mask="url(#path-9-outside-5_7_31)"/>
<mask id="path-11-outside-6_7_31" maskUnits="userSpaceOnUse" x="1206.23" y="294.664" width="393" height="83" fill="black">
<rect fill="white" x="1206.23" y="294.664" width="393" height="83"/>
<path d="M1233.53 375.664V311.534H1207.88V296.296H1276.61V311.534H1250.96V375.664H1233.53ZM1295.38 375.664V296.296H1312.81V326.991H1347.12V296.296H1364.56V375.664H1347.12V342.229H1312.81V375.664H1295.38ZM1388.86 375.664V296.296H1406.29V375.664H1388.86ZM1430.63 375.664V296.296H1447.07L1470.86 328.307C1476.01 335.213 1480.84 341.9 1485.77 348.806H1485.99C1485.88 341.133 1485.77 333.459 1485.77 325.785V296.296H1502.54V375.664H1486.1L1462.31 343.654C1457.16 336.748 1452.33 330.061 1447.4 323.154H1447.18C1447.29 330.828 1447.4 338.502 1447.4 346.175V375.664H1430.63ZM1526.89 375.664V296.296H1544.32V332.472L1544.54 332.582L1572.93 296.296H1593.43L1562.74 334.226L1595.29 375.664H1573.92L1544.54 336.857L1544.32 336.967V375.664H1526.89Z"/>
</mask>
<path d="M1233.53 375.664V311.534H1207.88V296.296H1276.61V311.534H1250.96V375.664H1233.53ZM1295.38 375.664V296.296H1312.81V326.991H1347.12V296.296H1364.56V375.664H1347.12V342.229H1312.81V375.664H1295.38ZM1388.86 375.664V296.296H1406.29V375.664H1388.86ZM1430.63 375.664V296.296H1447.07L1470.86 328.307C1476.01 335.213 1480.84 341.9 1485.77 348.806H1485.99C1485.88 341.133 1485.77 333.459 1485.77 325.785V296.296H1502.54V375.664H1486.1L1462.31 343.654C1457.16 336.748 1452.33 330.061 1447.4 323.154H1447.18C1447.29 330.828 1447.4 338.502 1447.4 346.175V375.664H1430.63ZM1526.89 375.664V296.296H1544.32V332.472L1544.54 332.582L1572.93 296.296H1593.43L1562.74 334.226L1595.29 375.664H1573.92L1544.54 336.857L1544.32 336.967V375.664H1526.89Z" fill="white"/>
<path d="M1233.53 375.664H1232.09V377.107H1233.53V375.664ZM1233.53 311.534H1234.97V310.091H1233.53V311.534ZM1207.88 311.534H1206.43V312.976H1207.88V311.534ZM1207.88 296.296V294.854H1206.43V296.296H1207.88ZM1276.61 296.296H1278.05V294.854H1276.61V296.296ZM1276.61 311.534V312.976H1278.05V311.534H1276.61ZM1250.96 311.534V310.091H1249.52V311.534H1250.96ZM1250.96 375.664V377.107H1252.4V375.664H1250.96ZM1234.97 375.664V311.534H1232.09V375.664H1234.97ZM1233.53 310.091H1207.88V312.976H1233.53V310.091ZM1209.32 311.534V296.296H1206.43V311.534H1209.32ZM1207.88 297.738H1276.61V294.854H1207.88V297.738ZM1275.17 296.296V311.534H1278.05V296.296H1275.17ZM1276.61 310.091H1250.96V312.976H1276.61V310.091ZM1249.52 311.534V375.664H1252.4V311.534H1249.52ZM1250.96 374.222H1233.53V377.107H1250.96V374.222ZM1295.38 375.664H1293.94V377.107H1295.38V375.664ZM1295.38 296.296V294.854H1293.94V296.296H1295.38ZM1312.81 296.296H1314.25V294.854H1312.81V296.296ZM1312.81 326.991H1311.37V328.433H1312.81V326.991ZM1347.12 326.991V328.433H1348.57V326.991H1347.12ZM1347.12 296.296V294.854H1345.68V296.296H1347.12ZM1364.56 296.296H1366V294.854H1364.56V296.296ZM1364.56 375.664V377.107H1366V375.664H1364.56ZM1347.12 375.664H1345.68V377.107H1347.12V375.664ZM1347.12 342.229H1348.57V340.786H1347.12V342.229ZM1312.81 342.229V340.786H1311.37V342.229H1312.81ZM1312.81 375.664V377.107H1314.25V375.664H1312.81ZM1296.82 375.664V296.296H1293.94V375.664H1296.82ZM1295.38 297.738H1312.81V294.854H1295.38V297.738ZM1311.37 296.296V326.991H1314.25V296.296H1311.37ZM1312.81 328.433H1347.12V325.549H1312.81V328.433ZM1348.57 326.991V296.296H1345.68V326.991H1348.57ZM1347.12 297.738H1364.56V294.854H1347.12V297.738ZM1363.11 296.296V375.664H1366V296.296H1363.11ZM1364.56 374.222H1347.12V377.107H1364.56V374.222ZM1348.57 375.664V342.229H1345.68V375.664H1348.57ZM1347.12 340.786H1312.81V343.671H1347.12V340.786ZM1311.37 342.229V375.664H1314.25V342.229H1311.37ZM1312.81 374.222H1295.38V377.107H1312.81V374.222ZM1388.86 375.664H1387.42V377.107H1388.86V375.664ZM1388.86 296.296V294.854H1387.42V296.296H1388.86ZM1406.29 296.296H1407.73V294.854H1406.29V296.296ZM1406.29 375.664V377.107H1407.73V375.664H1406.29ZM1390.3 375.664V296.296H1387.42V375.664H1390.3ZM1388.86 297.738H1406.29V294.854H1388.86V297.738ZM1404.85 296.296V375.664H1407.73V296.296H1404.85ZM1406.29 374.222H1388.86V377.107H1406.29V374.222ZM1430.63 375.664H1429.19V377.107H1430.63V375.664ZM1430.63 296.296V294.854H1429.19V296.296H1430.63ZM1447.07 296.296L1448.23 295.436L1447.8 294.854H1447.07V296.296ZM1470.86 328.307L1469.7 329.167L1469.7 329.169L1470.86 328.307ZM1485.77 348.806L1484.6 349.645L1485.03 350.249H1485.77V348.806ZM1485.99 348.806V350.249H1487.45L1487.43 348.786L1485.99 348.806ZM1485.77 296.296V294.854H1484.33V296.296H1485.77ZM1502.54 296.296H1503.98V294.854H1502.54V296.296ZM1502.54 375.664V377.107H1503.98V375.664H1502.54ZM1486.1 375.664L1484.94 376.525L1485.37 377.107H1486.1V375.664ZM1462.31 343.654L1463.47 342.794L1463.47 342.791L1462.31 343.654ZM1447.4 323.154L1448.57 322.316L1448.14 321.712H1447.4V323.154ZM1447.18 323.154V321.712H1445.72L1445.74 323.175L1447.18 323.154ZM1447.4 375.664V377.107H1448.84V375.664H1447.4ZM1432.07 375.664V296.296H1429.19V375.664H1432.07ZM1430.63 297.738H1447.07V294.854H1430.63V297.738ZM1445.91 297.156L1469.7 329.167L1472.02 327.446L1448.23 295.436L1445.91 297.156ZM1469.7 329.169C1474.85 336.064 1479.66 342.742 1484.6 349.645L1486.94 347.968C1482.01 341.058 1477.18 334.362 1472.02 327.444L1469.7 329.169ZM1485.77 350.249H1485.99V347.364H1485.77V350.249ZM1487.43 348.786C1487.32 341.11 1487.21 333.447 1487.21 325.785H1484.33C1484.33 333.471 1484.44 341.155 1484.55 348.827L1487.43 348.786ZM1487.21 325.785V296.296H1484.33V325.785H1487.21ZM1485.77 297.738H1502.54V294.854H1485.77V297.738ZM1501.1 296.296V375.664H1503.98V296.296H1501.1ZM1502.54 374.222H1486.1V377.107H1502.54V374.222ZM1487.26 374.804L1463.47 342.794L1461.15 344.514L1484.94 376.525L1487.26 374.804ZM1463.47 342.791C1458.32 335.897 1453.5 329.219 1448.57 322.316L1446.23 323.993C1451.16 330.902 1455.99 337.598 1461.15 344.517L1463.47 342.791ZM1447.4 321.712H1447.18V324.597H1447.4V321.712ZM1445.74 323.175C1445.85 330.85 1445.96 338.514 1445.96 346.175H1448.84C1448.84 338.49 1448.73 330.806 1448.62 323.134L1445.74 323.175ZM1445.96 346.175V375.664H1448.84V346.175H1445.96ZM1447.4 374.222H1430.63V377.107H1447.4V374.222ZM1526.89 375.664H1525.45V377.107H1526.89V375.664ZM1526.89 296.296V294.854H1525.45V296.296H1526.89ZM1544.32 296.296H1545.76V294.854H1544.32V296.296ZM1544.32 332.472H1542.88V333.364L1543.67 333.762L1544.32 332.472ZM1544.54 332.582L1543.89 333.872L1544.95 334.399L1545.67 333.471L1544.54 332.582ZM1572.93 296.296V294.854H1572.23L1571.79 295.407L1572.93 296.296ZM1593.43 296.296L1594.55 297.203L1596.45 294.854H1593.43V296.296ZM1562.74 334.226L1561.61 333.319L1560.89 334.213L1561.6 335.117L1562.74 334.226ZM1595.29 375.664V377.107H1598.26L1596.43 374.773L1595.29 375.664ZM1573.92 375.664L1572.77 376.535L1573.2 377.107H1573.92V375.664ZM1544.54 336.857L1545.69 335.987L1544.96 335.031L1543.89 335.567L1544.54 336.857ZM1544.32 336.967L1543.67 335.677L1542.88 336.075V336.967H1544.32ZM1544.32 375.664V377.107H1545.76V375.664H1544.32ZM1528.33 375.664V296.296H1525.45V375.664H1528.33ZM1526.89 297.738H1544.32V294.854H1526.89V297.738ZM1542.88 296.296V332.472H1545.76V296.296H1542.88ZM1543.67 333.762L1543.89 333.872L1545.18 331.292L1544.96 331.182L1543.67 333.762ZM1545.67 333.471L1574.07 297.185L1571.79 295.407L1543.4 331.693L1545.67 333.471ZM1572.93 297.738H1593.43V294.854H1572.93V297.738ZM1592.31 295.389L1561.61 333.319L1563.86 335.134L1594.55 297.203L1592.31 295.389ZM1561.6 335.117L1594.16 376.556L1596.43 374.773L1563.87 333.335L1561.6 335.117ZM1595.29 374.222H1573.92V377.107H1595.29V374.222ZM1575.07 374.794L1545.69 335.987L1543.39 337.728L1572.77 376.535L1575.07 374.794ZM1543.89 335.567L1543.67 335.677L1544.96 338.257L1545.18 338.147L1543.89 335.567ZM1542.88 336.967V375.664H1545.76V336.967H1542.88ZM1544.32 374.222H1526.89V377.107H1544.32V374.222Z" fill="white" mask="url(#path-11-outside-6_7_31)"/>
<path d="M501.755 90.937V158.397L388.039 77.171L387.624 76.8747L387.209 77.1713L270.64 160.536V90.9423L387.619 0.904287L501.755 90.937Z" fill="white" stroke="white" stroke-width="1.42663"/>
<path d="M501.755 190.117V224.205L387.966 162.01L387.624 161.823L387.282 162.01L273.494 224.205V189.405L387.622 111.429L501.755 190.117Z" fill="white" stroke="white" stroke-width="1.42663"/>
<path d="M492.398 250.76L481.24 310.731L419.277 285.735L418.293 285.338L418.297 286.399L419.008 485.055H355.525V286.396V285.335L354.542 285.736L293.304 310.724L282.845 250.763L387.624 195.542L492.398 250.76Z" fill="white" stroke="white" stroke-width="1.42663"/>
<path d="M495.038 205H1588.75C1602.14 205 1613 215.858 1613 229.253V500.747C1613 514.142 1602.14 525 1588.75 525H29.2528C15.8583 525 5 514.142 5 500.747V229.253C5 215.858 15.8583 205 29.2528 205H275.5" stroke="white" stroke-width="9.98643"/>
</svg>
