<svg width="1618" height="530" viewBox="0 0 1618 530" fill="none" xmlns="http://www.w3.org/2000/svg">
<mask id="path-1-outside-1_7_31" maskUnits="userSpaceOnUse" x="486.349" y="221.988" width="259" height="284" fill="black">
<rect fill="white" x="486.349" y="221.988" width="259" height="284"/>
<path d="M729.319 448.616C703.796 479.243 670.501 494.557 629.434 494.557C610.872 494.557 593.586 491.192 577.577 484.464C561.568 477.735 547.646 468.57 535.813 456.969C524.212 445.136 515.047 431.331 508.319 415.553C501.59 399.776 498.226 382.722 498.226 364.393C498.226 346.063 501.59 329.01 508.319 313.232C515.047 297.455 524.212 283.765 535.813 272.164C547.646 260.331 561.568 251.05 577.577 244.322C593.586 237.593 610.872 234.229 629.434 234.229C649.852 234.229 667.485 237.709 682.335 244.67C697.416 251.631 711.105 261.723 723.402 274.949L685.467 311.84C678.97 304.415 671.198 298.267 662.149 293.394C653.1 288.29 642.311 285.738 629.782 285.738C618.877 285.738 608.668 287.594 599.155 291.306C589.874 295.018 581.753 300.355 574.793 307.316C567.832 314.276 562.38 322.629 558.435 332.374C554.491 341.887 552.519 352.56 552.519 364.393C552.519 376.226 554.491 387.015 558.435 396.76C562.38 406.273 567.832 414.509 574.793 421.47C581.753 428.431 589.874 433.767 599.155 437.479C608.668 441.192 618.877 443.048 629.782 443.048C643.007 443.048 654.492 440.38 664.237 435.043C673.982 429.707 682.799 422.05 690.687 412.073L729.319 448.616Z"/>
</mask>
<path d="M729.319 448.616C703.796 479.243 670.501 494.557 629.434 494.557C610.872 494.557 593.586 491.192 577.577 484.464C561.568 477.735 547.646 468.57 535.813 456.969C524.212 445.136 515.047 431.331 508.319 415.553C501.59 399.776 498.226 382.722 498.226 364.393C498.226 346.063 501.59 329.01 508.319 313.232C515.047 297.455 524.212 283.765 535.813 272.164C547.646 260.331 561.568 251.05 577.577 244.322C593.586 237.593 610.872 234.229 629.434 234.229C649.852 234.229 667.485 237.709 682.335 244.67C697.416 251.631 711.105 261.723 723.402 274.949L685.467 311.84C678.97 304.415 671.198 298.267 662.149 293.394C653.1 288.29 642.311 285.738 629.782 285.738C618.877 285.738 608.668 287.594 599.155 291.306C589.874 295.018 581.753 300.355 574.793 307.316C567.832 314.276 562.38 322.629 558.435 332.374C554.491 341.887 552.519 352.56 552.519 364.393C552.519 376.226 554.491 387.015 558.435 396.76C562.38 406.273 567.832 414.509 574.793 421.47C581.753 428.431 589.874 433.767 599.155 437.479C608.668 441.192 618.877 443.048 629.782 443.048C643.007 443.048 654.492 440.38 664.237 435.043C673.982 429.707 682.799 422.05 690.687 412.073L729.319 448.616Z" fill="black"/>
<path d="M729.319 448.616L738.087 455.923L744.947 447.69L737.162 440.325L729.319 448.616ZM577.577 484.464L573.155 494.985L573.155 494.985L577.577 484.464ZM535.813 456.969L527.663 464.959L527.743 465.04L527.823 465.119L535.813 456.969ZM508.319 415.553L497.82 420.031L497.82 420.031L508.319 415.553ZM508.319 313.232L518.817 317.709L518.817 317.709L508.319 313.232ZM535.813 272.164L527.743 264.094L527.743 264.094L535.813 272.164ZM577.577 244.322L581.999 254.843L581.999 254.843L577.577 244.322ZM682.335 244.67L677.49 255.004L677.521 255.018L677.552 255.033L682.335 244.67ZM723.402 274.949L731.359 283.131L739.36 275.35L731.76 267.177L723.402 274.949ZM685.467 311.84L676.878 319.356L684.799 328.409L693.424 320.022L685.467 311.84ZM662.149 293.394L656.541 303.335L656.639 303.39L656.738 303.443L662.149 293.394ZM599.155 291.306L595.006 280.674L594.961 280.691L594.916 280.709L599.155 291.306ZM574.793 307.316L582.863 315.386L582.863 315.386L574.793 307.316ZM558.435 332.374L568.978 336.745L568.996 336.701L569.015 336.656L558.435 332.374ZM558.435 396.76L547.856 401.042L547.874 401.087L547.893 401.131L558.435 396.76ZM574.793 421.47L566.722 429.54L566.722 429.54L574.793 421.47ZM599.155 437.479L594.916 448.076L594.961 448.094L595.006 448.112L599.155 437.479ZM664.237 435.043L658.755 425.033L658.755 425.033L664.237 435.043ZM690.687 412.073L698.53 403.782L689.47 395.211L681.735 404.994L690.687 412.073ZM720.551 441.31C697.271 469.246 667.232 483.144 629.434 483.144V505.97C673.771 505.97 710.322 489.241 738.087 455.923L720.551 441.31ZM629.434 483.144C612.285 483.144 596.514 480.043 581.999 473.942L573.155 494.985C590.659 502.342 609.459 505.97 629.434 505.97V483.144ZM581.999 473.942C567.253 467.745 554.558 459.364 543.803 448.819L527.823 465.119C540.734 477.777 555.882 487.726 573.155 494.985L581.999 473.942ZM543.963 448.979C533.391 438.196 525.008 425.593 518.817 411.076L497.82 420.031C505.087 437.068 515.033 452.076 527.663 464.959L543.963 448.979ZM518.817 411.076C512.733 396.81 509.639 381.291 509.639 364.393H486.813C486.813 384.154 490.448 402.742 497.82 420.031L518.817 411.076ZM509.639 364.393C509.639 347.495 512.733 331.976 518.817 317.709L497.82 308.755C490.448 326.043 486.813 344.631 486.813 364.393H509.639ZM518.817 317.709C525 303.212 533.361 290.758 543.883 280.235L527.743 264.094C515.064 276.773 505.095 291.698 497.82 308.755L518.817 317.709ZM543.883 280.235C554.631 269.487 567.301 261.021 581.999 254.843L573.155 233.8C555.834 241.08 540.661 251.176 527.743 264.094L543.883 280.235ZM581.999 254.843C596.514 248.743 612.285 245.642 629.434 245.642V222.816C609.459 222.816 590.659 226.444 573.155 233.8L581.999 254.843ZM629.434 245.642C648.577 245.642 664.481 248.906 677.49 255.004L687.179 234.336C670.489 226.513 651.126 222.816 629.434 222.816V245.642ZM677.552 255.033C691.17 261.318 703.67 270.488 715.044 282.72L731.76 267.177C718.54 252.959 703.661 241.943 687.117 234.307L677.552 255.033ZM715.445 266.767L677.51 303.658L693.424 320.022L731.359 283.131L715.445 266.767ZM694.056 304.324C686.623 295.829 677.76 288.838 667.56 283.345L656.738 303.443C664.635 307.696 671.318 313.001 676.878 319.356L694.056 304.324ZM667.756 283.454C656.676 277.203 643.872 274.325 629.782 274.325V297.151C640.75 297.151 649.524 299.376 656.541 303.335L667.756 283.454ZM629.782 274.325C617.554 274.325 605.929 276.411 595.006 280.674L603.304 301.938C611.407 298.776 620.199 297.151 629.782 297.151V274.325ZM594.916 280.709C584.223 284.987 574.793 291.175 566.722 299.245L582.863 315.386C588.713 309.535 595.525 305.05 603.394 301.903L594.916 280.709ZM566.722 299.245C558.608 307.36 552.335 317.026 547.856 328.092L569.015 336.656C572.424 328.232 577.056 321.193 582.863 315.386L566.722 299.245ZM547.893 328.003C543.294 339.092 541.106 351.281 541.106 364.393H563.932C563.932 353.838 565.687 344.681 568.978 336.745L547.893 328.003ZM541.106 364.393C541.106 377.51 543.296 389.776 547.856 401.042L569.015 392.478C565.686 384.254 563.932 374.942 563.932 364.393H541.106ZM547.893 401.131C552.383 411.962 558.654 421.472 566.722 429.54L582.863 413.4C577.01 407.547 572.376 400.583 568.978 392.388L547.893 401.131ZM566.722 429.54C574.793 437.611 584.223 443.799 594.916 448.076L603.394 426.883C595.525 423.735 588.713 419.25 582.863 413.4L566.722 429.54ZM595.006 448.112C605.929 452.374 617.554 454.461 629.782 454.461V431.635C620.199 431.635 611.407 430.009 603.304 426.847L595.006 448.112ZM629.782 454.461C644.559 454.461 658 451.471 669.719 445.054L658.755 425.033C650.984 429.289 641.455 431.635 629.782 431.635V454.461ZM669.719 445.054C680.986 438.884 690.939 430.156 699.64 419.152L681.735 404.994C674.658 413.944 666.978 420.53 658.755 425.033L669.719 445.054ZM682.844 420.364L721.476 456.908L737.162 440.325L698.53 403.782L682.844 420.364Z" fill="black" mask="url(#path-1-outside-1_7_31)"/>
<mask id="path-3-outside-2_7_31" maskUnits="userSpaceOnUse" x="22.693" y="221.988" width="281" height="284" fill="black">
<rect fill="white" x="22.693" y="221.988" width="281" height="284"/>
<path d="M165.778 350.472H288.633C289.329 353.256 289.909 356.852 290.373 361.261C291.069 365.669 291.418 369.845 291.418 373.79C291.418 391.423 288.865 407.085 283.761 420.774C278.656 434.463 271.232 446.528 261.487 456.969C250.35 468.802 236.893 478.083 221.115 484.812C205.338 491.308 187.356 494.557 167.17 494.557C149.073 494.557 131.903 491.308 115.662 484.812C99.6521 478.315 85.6148 469.382 73.5497 458.013C61.4846 446.412 51.9717 432.723 45.0111 416.946C38.0505 400.936 34.5701 383.419 34.5701 364.393C34.5701 345.367 38.0505 327.965 45.0111 312.188C51.9717 296.179 61.4846 282.489 73.5497 271.12C85.6148 259.519 99.6521 250.47 115.662 243.974C131.903 237.477 149.073 234.229 167.17 234.229C188.284 234.229 206.614 237.825 222.159 245.018C237.937 252.211 251.742 262.071 263.575 274.601L226.684 310.796C218.563 302.675 209.862 296.527 200.581 292.35C191.532 287.942 180.163 285.738 166.474 285.738C155.801 285.738 145.708 287.71 136.195 291.654C126.915 295.367 118.678 300.703 111.485 307.664C104.524 314.392 98.956 322.629 94.7796 332.374C90.8353 341.887 88.8631 352.56 88.8631 364.393C88.8631 376.226 90.8353 387.015 94.7796 396.76C98.956 406.273 104.641 414.509 111.833 421.47C119.026 428.199 127.379 433.535 136.891 437.479C146.404 441.192 156.613 443.048 167.518 443.048C188.864 443.048 205.918 437.363 218.679 425.994C222.623 422.514 226.22 418.222 229.468 413.117C232.948 407.781 235.732 401.98 237.821 395.716H165.778V350.472Z"/>
</mask>
<path d="M165.778 350.472H288.633C289.329 353.256 289.909 356.852 290.373 361.261C291.069 365.669 291.418 369.845 291.418 373.79C291.418 391.423 288.865 407.085 283.761 420.774C278.656 434.463 271.232 446.528 261.487 456.969C250.35 468.802 236.893 478.083 221.115 484.812C205.338 491.308 187.356 494.557 167.17 494.557C149.073 494.557 131.903 491.308 115.662 484.812C99.6521 478.315 85.6148 469.382 73.5497 458.013C61.4846 446.412 51.9717 432.723 45.0111 416.946C38.0505 400.936 34.5701 383.419 34.5701 364.393C34.5701 345.367 38.0505 327.965 45.0111 312.188C51.9717 296.179 61.4846 282.489 73.5497 271.12C85.6148 259.519 99.6521 250.47 115.662 243.974C131.903 237.477 149.073 234.229 167.17 234.229C188.284 234.229 206.614 237.825 222.159 245.018C237.937 252.211 251.742 262.071 263.575 274.601L226.684 310.796C218.563 302.675 209.862 296.527 200.581 292.35C191.532 287.942 180.163 285.738 166.474 285.738C155.801 285.738 145.708 287.71 136.195 291.654C126.915 295.367 118.678 300.703 111.485 307.664C104.524 314.392 98.956 322.629 94.7796 332.374C90.8353 341.887 88.8631 352.56 88.8631 364.393C88.8631 376.226 90.8353 387.015 94.7796 396.76C98.956 406.273 104.641 414.509 111.833 421.47C119.026 428.199 127.379 433.535 136.891 437.479C146.404 441.192 156.613 443.048 167.518 443.048C188.864 443.048 205.918 437.363 218.679 425.994C222.623 422.514 226.22 418.222 229.468 413.117C232.948 407.781 235.732 401.98 237.821 395.716H165.778V350.472Z" fill="black"/>
<path d="M165.778 350.472V339.058H154.365V350.472H165.778ZM288.633 350.472L299.706 347.703L297.544 339.058H288.633V350.472ZM290.373 361.261L279.023 362.455L279.054 362.749L279.1 363.041L290.373 361.261ZM283.761 420.774L294.455 424.761L294.455 424.761L283.761 420.774ZM261.487 456.969L269.798 464.791L269.814 464.774L269.83 464.757L261.487 456.969ZM221.115 484.812L225.461 495.365L225.527 495.338L225.592 495.31L221.115 484.812ZM115.662 484.812L111.37 495.387L111.396 495.398L111.423 495.409L115.662 484.812ZM73.5497 458.013L65.6392 466.24L65.6807 466.28L65.7226 466.32L73.5497 458.013ZM45.0111 416.946L34.5445 421.496L34.5567 421.524L34.5691 421.552L45.0111 416.946ZM45.0111 312.188L55.4531 316.795L55.4655 316.767L55.4777 316.739L45.0111 312.188ZM73.5497 271.12L81.3768 279.427L81.4187 279.387L81.4602 279.347L73.5497 271.12ZM115.662 243.974L111.423 233.377L111.396 233.388L111.37 233.398L115.662 243.974ZM222.159 245.018L217.367 255.376L217.396 255.389L217.425 255.403L222.159 245.018ZM263.575 274.601L271.568 282.747L279.561 274.905L271.872 266.764L263.575 274.601ZM226.684 310.796L218.613 318.866L226.607 326.86L234.677 318.943L226.684 310.796ZM200.581 292.35L195.583 302.61L195.739 302.687L195.898 302.758L200.581 292.35ZM136.195 291.654L140.434 302.251L140.501 302.224L140.567 302.197L136.195 291.654ZM111.485 307.664L119.417 315.869L119.422 315.865L111.485 307.664ZM94.7796 332.374L84.2894 327.878L84.2628 327.94L84.2369 328.003L94.7796 332.374ZM94.7796 396.76L84.2003 401.042L84.2626 401.196L84.3293 401.348L94.7796 396.76ZM111.833 421.47L103.896 429.671L103.966 429.739L104.036 429.805L111.833 421.47ZM136.891 437.479L132.52 448.022L132.631 448.068L132.742 448.112L136.891 437.479ZM218.679 425.994L211.128 417.436L211.107 417.455L211.087 417.473L218.679 425.994ZM229.468 413.117L219.908 406.883L219.873 406.936L219.839 406.99L229.468 413.117ZM237.821 395.716L248.648 399.325L253.655 384.303H237.821V395.716ZM165.778 395.716H154.365V407.129H165.778V395.716ZM165.778 361.885H288.633V339.058H165.778V361.885ZM277.561 353.24C278.078 355.308 278.588 358.325 279.023 362.455L301.724 360.066C301.23 355.379 300.581 351.203 299.706 347.703L277.561 353.24ZM279.1 363.041C279.715 366.935 280.004 370.513 280.004 373.79H302.831C302.831 369.178 302.424 364.402 301.647 359.48L279.1 363.041ZM280.004 373.79C280.004 390.336 277.609 404.606 273.067 416.786L294.455 424.761C300.122 409.563 302.831 392.511 302.831 373.79H280.004ZM273.067 416.786C268.476 429.1 261.838 439.866 253.143 449.182L269.83 464.757C280.625 453.191 288.837 439.827 294.455 424.761L273.067 416.786ZM253.176 449.147C243.178 459.77 231.048 468.168 216.638 474.314L225.592 495.31C242.737 487.998 257.522 477.835 269.798 464.791L253.176 449.147ZM216.77 474.258C202.599 480.093 186.133 483.144 167.17 483.144V505.97C188.579 505.97 208.077 502.523 225.461 495.365L216.77 474.258ZM167.17 483.144C150.473 483.144 134.747 480.154 119.9 474.215L111.423 495.409C129.059 502.463 147.672 505.97 167.17 505.97V483.144ZM119.953 474.236C105.196 468.248 92.3708 460.067 81.3768 449.707L65.7226 466.32C78.8588 478.698 94.1078 488.382 111.37 495.387L119.953 474.236ZM81.4602 449.786C70.4993 439.247 61.8323 426.798 55.4531 412.339L34.5691 421.552C42.1112 438.648 52.4699 453.577 65.6392 466.24L81.4602 449.786ZM55.4777 412.395C49.1956 397.946 45.9832 381.995 45.9832 364.393H23.1571C23.1571 384.842 26.9053 403.926 34.5445 421.496L55.4777 412.395ZM45.9832 364.393C45.9832 346.789 49.1962 330.977 55.4531 316.795L34.5691 307.581C26.9047 324.954 23.1571 343.946 23.1571 364.393H45.9832ZM55.4777 316.739C61.8552 302.07 70.496 289.68 81.3768 279.427L65.7226 262.814C52.4732 275.299 42.0883 290.287 34.5445 307.637L55.4777 316.739ZM81.4602 279.347C92.4454 268.785 105.244 260.518 119.953 254.549L111.37 233.398C94.0601 240.423 78.7842 250.254 65.6392 262.893L81.4602 279.347ZM119.9 254.571C134.747 248.632 150.473 245.642 167.17 245.642V222.816C147.672 222.816 129.059 226.323 111.423 233.377L119.9 254.571ZM167.17 245.642C187.005 245.642 203.631 249.021 217.367 255.376L226.952 234.66C209.597 226.63 189.563 222.816 167.17 222.816V245.642ZM217.425 255.403C231.87 261.988 244.463 270.986 255.278 282.437L271.872 266.764C259.021 253.157 244.004 242.433 226.893 234.633L217.425 255.403ZM255.582 266.454L218.691 302.649L234.677 318.943L271.568 282.747L255.582 266.454ZM234.754 302.726C225.78 293.752 215.958 286.754 205.265 281.942L195.898 302.758C203.766 306.299 211.346 311.599 218.613 318.866L234.754 302.726ZM205.58 282.09C194.518 276.701 181.305 274.325 166.474 274.325V297.151C179.022 297.151 188.547 299.183 195.583 302.61L205.58 282.09ZM166.474 274.325C154.357 274.325 142.773 276.572 131.824 281.111L140.567 302.197C148.643 298.848 157.246 297.151 166.474 297.151V274.325ZM131.957 281.057C121.297 285.321 111.805 291.472 103.548 299.462L119.422 315.865C125.551 309.934 132.532 305.412 140.434 302.251L131.957 281.057ZM103.553 299.458C95.4017 307.337 89.0061 316.872 84.2894 327.878L105.27 336.87C108.906 328.386 113.647 321.447 119.417 315.869L103.553 299.458ZM84.2369 328.003C79.6387 339.092 77.45 351.281 77.45 364.393H100.276C100.276 353.838 102.032 344.681 105.322 336.745L84.2369 328.003ZM77.45 364.393C77.45 377.51 79.6404 389.776 84.2003 401.042L105.359 392.478C102.03 384.254 100.276 374.942 100.276 364.393H77.45ZM84.3293 401.348C89.078 412.164 95.5989 421.642 103.896 429.671L119.77 413.269C113.682 407.377 108.834 400.381 105.23 392.172L84.3293 401.348ZM104.036 429.805C112.274 437.511 121.801 443.577 132.52 448.022L141.263 426.937C132.957 423.493 125.777 418.886 119.63 413.135L104.036 429.805ZM132.742 448.112C143.665 452.374 155.291 454.461 167.518 454.461V431.635C157.936 431.635 149.143 430.009 141.041 426.847L132.742 448.112ZM167.518 454.461C190.94 454.461 210.936 448.178 226.271 434.516L211.087 417.473C200.9 426.548 186.788 431.635 167.518 431.635V454.461ZM226.23 434.552C231.087 430.266 235.358 425.12 239.097 419.245L219.839 406.99C217.081 411.323 214.159 414.762 211.128 417.436L226.23 434.552ZM239.028 419.352C243.06 413.169 246.263 406.481 248.648 399.325L226.993 392.107C225.202 397.479 222.836 402.393 219.908 406.883L239.028 419.352ZM237.821 384.303H165.778V407.129H237.821V384.303ZM177.191 395.716V350.472H154.365V395.716H177.191Z" fill="black" mask="url(#path-3-outside-2_7_31)"/>
<path d="M812.085 347.71V333.459H843.328V369.854C836.093 374.02 825.678 376.87 815.483 376.87C789.831 376.87 772.072 359.769 772.072 336.309C772.072 312.74 790.05 295.09 815.593 295.09C825.788 295.09 834.558 297.94 840.807 301.448V318.769C833.9 314.055 825.021 310.767 816.141 310.767C799.917 310.767 789.612 321.948 789.612 336.2C789.612 350.122 799.368 361.742 816.031 361.742C819.868 361.742 823.596 360.975 826.446 359.769V347.71H812.085ZM869.345 375.665V296.296H898.505C907.056 296.296 913.743 297.721 919.224 301.668C924.706 305.614 928.433 312.082 928.433 320.742C928.433 331.266 922.732 339.269 913.085 342.996L934.682 375.665H914.73L895.217 345.518H886.775V375.665H869.345ZM886.775 331.705H897.519C901.904 331.705 904.864 331.157 907.275 329.512C909.687 327.868 911.003 324.799 911.003 321.51C911.003 318.002 909.577 315.042 907.275 313.398C904.973 311.753 901.904 311.205 897.519 311.205H886.775V331.705ZM954.12 375.665V296.296H1003.12V311.534H971.551V327.539H998.738V342.229H971.551V360.427H1004.33V375.665H954.12ZM1021.82 375.665L1053.61 296.296H1071.37L1103.16 375.665H1084.52L1078.06 359.002H1046.16L1039.69 375.665H1021.82ZM1051.42 345.298H1072.9L1069.73 336.748C1067.31 330.17 1064.46 322.277 1062.49 316.357H1062.27C1060.08 322.606 1057.34 330.17 1054.71 336.857L1051.42 345.298ZM1133.88 375.665V311.534H1108.23V296.296H1176.97V311.534H1151.31V375.665H1133.88Z" fill="black"/>
<path d="M859.682 442.304C856.547 444.133 852.368 445.021 848.502 445.021C836.381 445.021 827.97 436.662 827.97 425.638C827.97 414.562 836.433 406.047 848.554 406.047C852.577 406.047 856.391 406.987 859.369 408.659V416.861C856.495 414.824 852.681 413.465 848.867 413.465C841.449 413.465 836.329 418.637 836.329 425.481C836.329 432.325 841.344 437.602 849.181 437.602C853.047 437.602 856.756 436.244 859.682 434.154V442.304ZM888.362 445.021C877.13 445.021 868.614 436.557 868.614 425.534C868.614 414.51 877.13 406.047 888.362 406.047C899.595 406.047 908.111 414.51 908.111 425.534C908.111 436.557 899.595 445.021 888.362 445.021ZM888.362 437.602C894.893 437.602 899.804 432.273 899.804 425.534C899.804 418.794 894.893 413.465 888.362 413.465C881.832 413.465 876.921 418.794 876.921 425.534C876.921 432.273 881.832 437.602 888.362 437.602ZM919.093 444.446V406.621H926.93L938.267 421.877C940.722 425.168 943.021 428.355 945.372 431.646H945.476C945.424 427.989 945.372 424.332 945.372 420.675V406.621H953.365V444.446H945.529L934.192 429.191C931.736 425.899 929.438 422.712 927.087 419.421H926.982C927.034 423.078 927.087 426.735 927.087 430.392V444.446H919.093ZM965.125 433.684C969.356 436.609 974.476 437.811 977.402 437.811C980.798 437.811 982.888 436.505 982.888 433.893C982.888 432.064 981.895 431.072 979.544 430.131C977.193 429.191 972.491 428.25 969.356 426.422C966.222 424.593 964.55 421.877 964.55 417.645C964.55 410.383 969.827 406.047 977.768 406.047C981.477 406.047 985.97 406.987 989.261 408.711V416.757C985.291 414.301 980.85 413.256 977.977 413.256C974.894 413.256 972.909 414.458 972.909 416.861C972.909 418.69 973.954 419.63 976.357 420.57C978.76 421.511 983.462 422.399 986.597 424.28C989.732 426.161 991.247 429.191 991.247 433.161C991.247 440.632 985.761 445.021 977.559 445.021C973.64 445.021 968.73 443.976 965.125 442.043V433.684ZM1011.12 444.446V413.883H998.891V406.621H1031.65V413.883H1019.42V444.446H1011.12ZM1041.64 444.446V406.621H1055.53C1059.61 406.621 1062.8 407.301 1065.41 409.181C1068.02 411.062 1069.8 414.144 1069.8 418.272C1069.8 423.287 1067.08 427.101 1062.48 428.877L1072.78 444.446H1063.27L1053.97 430.079H1049.94V444.446H1041.64ZM1049.94 423.496H1055.06C1057.15 423.496 1058.57 423.235 1059.71 422.451C1060.86 421.668 1061.49 420.205 1061.49 418.637C1061.49 416.966 1060.81 415.555 1059.71 414.771C1058.62 413.988 1057.15 413.727 1055.06 413.727H1049.94V423.496ZM1081.15 406.621H1089.46V427.676C1089.46 430.392 1089.82 432.796 1091.23 434.624C1092.64 436.453 1094.79 437.55 1097.76 437.55C1100.8 437.55 1102.88 436.453 1104.3 434.624C1105.71 432.796 1106.12 430.392 1106.12 427.676V406.621H1114.12V428.198C1114.12 432.378 1113.23 436.609 1110.46 439.796C1107.69 442.983 1103.25 445.021 1097.61 445.021C1092.23 445.021 1087.53 443.035 1084.81 439.796C1082.09 436.557 1081.15 432.534 1081.15 428.198V406.621ZM1156.44 442.304C1153.3 444.133 1149.12 445.021 1145.26 445.021C1133.14 445.021 1124.72 436.662 1124.72 425.638C1124.72 414.562 1133.19 406.047 1145.31 406.047C1149.33 406.047 1153.14 406.987 1156.12 408.659V416.861C1153.25 414.824 1149.44 413.465 1145.62 413.465C1138.2 413.465 1133.08 418.637 1133.08 425.481C1133.08 432.325 1138.1 437.602 1145.94 437.602C1149.8 437.602 1153.51 436.244 1156.44 434.154V442.304ZM1177.01 444.446V413.883H1164.78V406.621H1197.54V413.883H1185.32V444.446H1177.01ZM1207.53 444.446V406.621H1215.84V444.446H1207.53ZM1246.56 445.021C1235.33 445.021 1226.81 436.557 1226.81 425.534C1226.81 414.51 1235.33 406.047 1246.56 406.047C1257.79 406.047 1266.31 414.51 1266.31 425.534C1266.31 436.557 1257.79 445.021 1246.56 445.021ZM1246.56 437.602C1253.09 437.602 1258 432.273 1258 425.534C1258 418.794 1253.09 413.465 1246.56 413.465C1240.03 413.465 1235.12 418.794 1235.12 425.534C1235.12 432.273 1240.03 437.602 1246.56 437.602ZM1277.29 444.446V406.621H1285.13L1296.46 421.877C1298.92 425.168 1301.22 428.355 1303.57 431.646H1303.67C1303.62 427.989 1303.57 424.332 1303.57 420.675V406.621H1311.56V444.446H1303.72L1292.39 429.191C1289.93 425.899 1287.63 422.712 1285.28 419.421H1285.18C1285.23 423.078 1285.28 426.735 1285.28 430.392V444.446H1277.29Z" fill="black"/>
<path d="M1378.64 442.304C1375.5 444.133 1371.32 445.021 1367.46 445.021C1355.34 445.021 1346.93 436.662 1346.93 425.638C1346.93 414.562 1355.39 406.047 1367.51 406.047C1371.53 406.047 1375.35 406.987 1378.33 408.659V416.861C1375.45 414.824 1371.64 413.465 1367.82 413.465C1360.41 413.465 1355.29 418.637 1355.29 425.481C1355.29 432.325 1360.3 437.602 1368.14 437.602C1372 437.602 1375.71 436.244 1378.64 434.154V442.304ZM1407.32 445.021C1396.09 445.021 1387.57 436.557 1387.57 425.534C1387.57 414.51 1396.09 406.047 1407.32 406.047C1418.55 406.047 1427.07 414.51 1427.07 425.534C1427.07 436.557 1418.55 445.021 1407.32 445.021ZM1407.32 437.602C1413.85 437.602 1418.76 432.273 1418.76 425.534C1418.76 418.794 1413.85 413.465 1407.32 413.465C1400.79 413.465 1395.88 418.794 1395.88 425.534C1395.88 432.273 1400.79 437.602 1407.32 437.602ZM1438.05 444.446V406.621H1451.95C1456.02 406.621 1459.21 407.301 1461.82 409.181C1464.43 411.062 1466.21 414.144 1466.21 418.272C1466.21 423.287 1463.49 427.101 1458.9 428.877L1469.19 444.446H1459.68L1450.38 430.079H1446.36V444.446H1438.05ZM1446.36 423.496H1451.48C1453.57 423.496 1454.98 423.235 1456.13 422.451C1457.28 421.668 1457.9 420.205 1457.9 418.637C1457.9 416.966 1457.22 415.555 1456.13 414.771C1455.03 413.988 1453.57 413.727 1451.48 413.727H1446.36V423.496ZM1477.93 444.446V406.621H1491.41C1495.74 406.621 1499.09 407.301 1501.86 409.338C1504.63 411.376 1506.51 414.667 1506.51 418.951C1506.51 423.235 1504.63 426.526 1501.86 428.564C1499.09 430.601 1495.74 431.333 1491.41 431.333H1486.24V444.446H1477.93ZM1486.24 424.332H1491.09C1493.45 424.332 1495.01 424.071 1496.21 423.235C1497.42 422.399 1498.2 420.832 1498.2 419.055C1498.2 417.227 1497.42 415.66 1496.21 414.824C1495.01 413.988 1493.45 413.727 1491.09 413.727H1486.24V424.332ZM1515.41 445.021C1512.85 445.021 1510.71 442.983 1510.71 440.319C1510.71 437.654 1512.85 435.617 1515.41 435.617C1517.97 435.617 1520.12 437.654 1520.12 440.319C1520.12 442.983 1517.97 445.021 1515.41 445.021Z" fill="black"/>
<path d="M1233.53 375.664V311.534H1207.88V296.296H1276.61V311.534H1250.96V375.664H1233.53ZM1295.38 375.664V296.296H1312.81V326.991H1347.12V296.296H1364.56V375.664H1347.12V342.229H1312.81V375.664H1295.38ZM1388.86 375.664V296.296H1406.29V375.664H1388.86ZM1430.63 375.664V296.296H1447.07L1470.86 328.307C1476.01 335.213 1480.84 341.9 1485.77 348.806H1485.99C1485.88 341.133 1485.77 333.459 1485.77 325.785V296.296H1502.54V375.664H1486.1L1462.31 343.654C1457.16 336.748 1452.33 330.061 1447.4 323.154H1447.18C1447.29 330.828 1447.4 338.502 1447.4 346.175V375.664H1430.63ZM1526.89 375.664V296.296H1544.32V332.472L1544.54 332.582L1572.93 296.296H1593.43L1562.74 334.226L1595.29 375.664H1573.92L1544.54 336.857L1544.32 336.967V375.664H1526.89Z" fill="black"/>
<path d="M501.755 90.937V158.397L388.039 77.171L387.624 76.8747L387.209 77.1713L270.64 160.536V90.9423L387.619 0.904287L501.755 90.937Z" fill="black" stroke="black" stroke-width="1.42663"/>
<path d="M501.755 190.117V224.205L387.966 162.01L387.624 161.823L387.282 162.01L273.494 224.205V189.405L387.622 111.429L501.755 190.117Z" fill="black" stroke="black" stroke-width="1.42663"/>
<path d="M492.398 250.76L481.24 310.731L419.277 285.735L418.293 285.338L418.297 286.399L419.008 485.055H355.525V286.396V285.335L354.542 285.736L293.304 310.724L282.845 250.763L387.624 195.542L492.398 250.76Z" fill="black" stroke="black" stroke-width="1.42663"/>
<path d="M495.038 205H1588.75C1602.14 205 1613 215.858 1613 229.253V500.747C1613 514.142 1602.14 525 1588.75 525H29.2528C15.8583 525 5 514.142 5 500.747V229.253C5 215.858 15.8583 205 29.2528 205H275.5" stroke="black" stroke-width="9.98643"/>
</svg>
