<svg width="724" height="505" viewBox="0 0 724 505" fill="none" xmlns="http://www.w3.org/2000/svg">
<mask id="path-1-outside-1_24_2" maskUnits="userSpaceOnUse" x="464.656" y="217.988" width="259" height="284" fill="black">
<rect fill="white" x="464.656" y="217.988" width="259" height="284"/>
<path d="M707.626 444.616C682.104 475.243 648.808 490.557 607.741 490.557C589.179 490.557 571.893 487.192 555.884 480.464C539.875 473.735 525.953 464.57 514.12 452.969C502.519 441.136 493.354 427.331 486.626 411.553C479.897 395.776 476.533 378.722 476.533 360.393C476.533 342.063 479.897 325.01 486.626 309.232C493.354 293.455 502.519 279.765 514.12 268.164C525.953 256.331 539.875 247.051 555.884 240.322C571.893 233.593 589.179 230.229 607.741 230.229C628.159 230.229 645.792 233.709 660.642 240.67C675.723 247.631 689.412 257.723 701.709 270.949L663.774 307.84C657.277 300.415 649.505 294.267 640.456 289.394C631.407 284.29 620.618 281.738 608.089 281.738C597.184 281.738 586.975 283.594 577.462 287.306C568.181 291.019 560.06 296.355 553.1 303.316C546.139 310.276 540.687 318.629 536.742 328.374C532.798 337.887 530.826 348.56 530.826 360.393C530.826 372.226 532.798 383.015 536.742 392.76C540.687 402.273 546.139 410.509 553.1 417.47C560.06 424.431 568.181 429.767 577.462 433.479C586.975 437.192 597.184 439.048 608.089 439.048C621.314 439.048 632.799 436.38 642.544 431.043C652.289 425.707 661.106 418.05 668.994 408.073L707.626 444.616Z"/>
</mask>
<path d="M707.626 444.616C682.104 475.243 648.808 490.557 607.741 490.557C589.179 490.557 571.893 487.192 555.884 480.464C539.875 473.735 525.953 464.57 514.12 452.969C502.519 441.136 493.354 427.331 486.626 411.553C479.897 395.776 476.533 378.722 476.533 360.393C476.533 342.063 479.897 325.01 486.626 309.232C493.354 293.455 502.519 279.765 514.12 268.164C525.953 256.331 539.875 247.051 555.884 240.322C571.893 233.593 589.179 230.229 607.741 230.229C628.159 230.229 645.792 233.709 660.642 240.67C675.723 247.631 689.412 257.723 701.709 270.949L663.774 307.84C657.277 300.415 649.505 294.267 640.456 289.394C631.407 284.29 620.618 281.738 608.089 281.738C597.184 281.738 586.975 283.594 577.462 287.306C568.181 291.019 560.06 296.355 553.1 303.316C546.139 310.276 540.687 318.629 536.742 328.374C532.798 337.887 530.826 348.56 530.826 360.393C530.826 372.226 532.798 383.015 536.742 392.76C540.687 402.273 546.139 410.509 553.1 417.47C560.06 424.431 568.181 429.767 577.462 433.479C586.975 437.192 597.184 439.048 608.089 439.048C621.314 439.048 632.799 436.38 642.544 431.043C652.289 425.707 661.106 418.05 668.994 408.073L707.626 444.616Z" fill="black"/>
<path d="M707.626 444.616L716.394 451.923L723.254 443.69L715.469 436.325L707.626 444.616ZM555.884 480.464L551.462 490.985L551.462 490.985L555.884 480.464ZM514.12 452.969L505.97 460.959L506.05 461.04L506.13 461.119L514.12 452.969ZM486.626 411.553L476.127 416.031L476.128 416.031L486.626 411.553ZM486.626 309.232L497.124 313.709L497.124 313.709L486.626 309.232ZM514.12 268.164L506.05 260.094L506.05 260.094L514.12 268.164ZM555.884 240.322L560.306 250.843L560.306 250.843L555.884 240.322ZM660.642 240.67L655.797 251.004L655.828 251.018L655.859 251.033L660.642 240.67ZM701.709 270.949L709.666 279.131L717.667 271.35L710.067 263.177L701.709 270.949ZM663.774 307.84L655.185 315.356L663.106 324.409L671.731 316.022L663.774 307.84ZM640.456 289.394L634.848 299.335L634.946 299.39L635.045 299.443L640.456 289.394ZM577.462 287.306L573.313 276.674L573.268 276.692L573.223 276.709L577.462 287.306ZM553.1 303.316L561.17 311.386L561.17 311.386L553.1 303.316ZM536.742 328.374L547.285 332.745L547.303 332.701L547.322 332.656L536.742 328.374ZM536.742 392.76L526.163 397.042L526.181 397.087L526.2 397.131L536.742 392.76ZM553.1 417.47L545.03 425.54L545.03 425.54L553.1 417.47ZM577.462 433.479L573.223 444.076L573.268 444.094L573.313 444.112L577.462 433.479ZM642.544 431.043L637.062 421.033L637.062 421.033L642.544 431.043ZM668.994 408.073L676.837 399.782L667.777 391.211L660.042 400.994L668.994 408.073ZM698.858 437.31C675.578 465.246 645.539 479.144 607.741 479.144V501.97C652.078 501.97 688.629 485.241 716.394 451.923L698.858 437.31ZM607.741 479.144C590.592 479.144 574.821 476.043 560.306 469.942L551.462 490.985C568.966 498.342 587.766 501.97 607.741 501.97V479.144ZM560.306 469.942C545.56 463.745 532.865 455.364 522.11 444.819L506.13 461.119C519.041 473.777 534.189 483.726 551.462 490.985L560.306 469.942ZM522.27 444.979C511.698 434.196 503.315 421.593 497.124 407.076L476.128 416.031C483.394 433.068 493.34 448.076 505.97 460.959L522.27 444.979ZM497.124 407.076C491.04 392.81 487.946 377.291 487.946 360.393H465.12C465.12 380.154 468.755 398.743 476.127 416.031L497.124 407.076ZM487.946 360.393C487.946 343.495 491.04 327.976 497.124 313.709L476.128 304.755C468.755 322.043 465.12 340.631 465.12 360.393H487.946ZM497.124 313.709C503.307 299.212 511.668 286.758 522.19 276.235L506.05 260.094C493.371 272.773 483.402 287.698 476.127 304.755L497.124 313.709ZM522.19 276.235C532.938 265.487 545.608 257.021 560.306 250.843L551.462 229.8C534.142 237.08 518.968 247.176 506.05 260.094L522.19 276.235ZM560.306 250.843C574.821 244.743 590.592 241.642 607.741 241.642V218.816C587.766 218.816 568.966 222.444 551.462 229.8L560.306 250.843ZM607.741 241.642C626.884 241.642 642.788 244.906 655.797 251.004L665.486 230.336C648.796 222.513 629.433 218.816 607.741 218.816V241.642ZM655.859 251.033C669.477 257.318 681.977 266.488 693.351 278.72L710.067 263.177C696.847 248.959 681.968 237.943 665.424 230.307L655.859 251.033ZM693.752 262.767L655.817 299.658L671.731 316.022L709.666 279.131L693.752 262.767ZM672.363 300.324C664.93 291.829 656.067 284.838 645.867 279.345L635.045 299.443C642.942 303.696 649.625 309.001 655.185 315.356L672.363 300.324ZM646.063 279.454C634.983 273.203 622.179 270.325 608.089 270.325V293.151C619.057 293.151 627.831 295.376 634.848 299.335L646.063 279.454ZM608.089 270.325C595.861 270.325 584.236 272.411 573.313 276.674L581.611 297.938C589.714 294.776 598.506 293.151 608.089 293.151V270.325ZM573.223 276.709C562.53 280.987 553.1 287.175 545.03 295.245L561.17 311.386C567.021 305.535 573.832 301.05 581.701 297.903L573.223 276.709ZM545.03 295.245C536.915 303.36 530.642 313.026 526.163 324.092L547.322 332.656C550.731 324.232 555.363 317.193 561.17 311.386L545.03 295.245ZM526.2 324.003C521.601 335.092 519.413 347.281 519.413 360.393H542.239C542.239 349.838 543.994 340.681 547.285 332.745L526.2 324.003ZM519.413 360.393C519.413 373.51 521.603 385.776 526.163 397.042L547.322 388.478C543.993 380.254 542.239 370.942 542.239 360.393H519.413ZM526.2 397.131C530.691 407.962 536.961 417.472 545.03 425.54L561.17 409.4C555.317 403.547 550.683 396.583 547.285 388.388L526.2 397.131ZM545.03 425.54C553.1 433.611 562.53 439.799 573.223 444.076L581.701 422.883C573.832 419.735 567.021 415.25 561.17 409.4L545.03 425.54ZM573.313 444.112C584.236 448.374 595.861 450.461 608.089 450.461V427.635C598.506 427.635 589.714 426.009 581.611 422.847L573.313 444.112ZM608.089 450.461C622.866 450.461 636.307 447.471 648.026 441.054L637.062 421.033C629.291 425.289 619.762 427.635 608.089 427.635V450.461ZM648.026 441.054C659.293 434.884 669.246 426.156 677.947 415.152L660.042 400.994C652.965 409.944 645.285 416.53 637.062 421.033L648.026 441.054ZM661.151 416.364L699.783 452.908L715.469 436.325L676.837 399.782L661.151 416.364Z" fill="black" mask="url(#path-1-outside-1_24_2)"/>
<mask id="path-3-outside-2_24_2" maskUnits="userSpaceOnUse" x="1" y="217.988" width="281" height="284" fill="black">
<rect fill="white" x="1" y="217.988" width="281" height="284"/>
<path d="M144.085 346.472H266.94C267.636 349.256 268.216 352.852 268.68 357.261C269.377 361.669 269.725 365.845 269.725 369.79C269.725 387.423 267.172 403.085 262.068 416.774C256.963 430.463 249.539 442.528 239.794 452.969C228.657 464.802 215.2 474.083 199.422 480.812C183.645 487.308 165.663 490.557 145.477 490.557C127.38 490.557 110.21 487.308 93.9685 480.812C77.9591 474.315 63.9218 465.382 51.8567 454.013C39.7916 442.412 30.2788 428.723 23.3181 412.946C16.3575 396.936 12.8772 379.419 12.8772 360.393C12.8772 341.367 16.3575 323.966 23.3181 308.188C30.2788 292.179 39.7916 278.489 51.8567 267.12C63.9218 255.519 77.9591 246.47 93.9685 239.974C110.21 233.477 127.38 230.229 145.477 230.229C166.591 230.229 184.921 233.825 200.466 241.018C216.244 248.211 230.049 258.072 241.882 270.601L204.991 306.796C196.87 298.675 188.169 292.527 178.888 288.35C169.839 283.942 158.47 281.738 144.781 281.738C134.108 281.738 124.015 283.71 114.502 287.654C105.222 291.367 96.9848 296.703 89.7922 303.664C82.8315 310.392 77.263 318.629 73.0866 328.374C69.1423 337.887 67.1701 348.56 67.1701 360.393C67.1701 372.226 69.1423 383.015 73.0866 392.76C77.263 402.273 82.9475 410.509 90.1402 417.47C97.3329 424.199 105.686 429.535 115.198 433.479C124.711 437.192 134.92 439.048 145.825 439.048C167.171 439.048 184.225 433.363 196.986 421.994C200.93 418.514 204.527 414.222 207.775 409.117C211.255 403.781 214.039 397.98 216.128 391.716H144.085V346.472Z"/>
</mask>
<path d="M144.085 346.472H266.94C267.636 349.256 268.216 352.852 268.68 357.261C269.377 361.669 269.725 365.845 269.725 369.79C269.725 387.423 267.172 403.085 262.068 416.774C256.963 430.463 249.539 442.528 239.794 452.969C228.657 464.802 215.2 474.083 199.422 480.812C183.645 487.308 165.663 490.557 145.477 490.557C127.38 490.557 110.21 487.308 93.9685 480.812C77.9591 474.315 63.9218 465.382 51.8567 454.013C39.7916 442.412 30.2788 428.723 23.3181 412.946C16.3575 396.936 12.8772 379.419 12.8772 360.393C12.8772 341.367 16.3575 323.966 23.3181 308.188C30.2788 292.179 39.7916 278.489 51.8567 267.12C63.9218 255.519 77.9591 246.47 93.9685 239.974C110.21 233.477 127.38 230.229 145.477 230.229C166.591 230.229 184.921 233.825 200.466 241.018C216.244 248.211 230.049 258.072 241.882 270.601L204.991 306.796C196.87 298.675 188.169 292.527 178.888 288.35C169.839 283.942 158.47 281.738 144.781 281.738C134.108 281.738 124.015 283.71 114.502 287.654C105.222 291.367 96.9848 296.703 89.7922 303.664C82.8315 310.392 77.263 318.629 73.0866 328.374C69.1423 337.887 67.1701 348.56 67.1701 360.393C67.1701 372.226 69.1423 383.015 73.0866 392.76C77.263 402.273 82.9475 410.509 90.1402 417.47C97.3329 424.199 105.686 429.535 115.198 433.479C124.711 437.192 134.92 439.048 145.825 439.048C167.171 439.048 184.225 433.363 196.986 421.994C200.93 418.514 204.527 414.222 207.775 409.117C211.255 403.781 214.039 397.98 216.128 391.716H144.085V346.472Z" fill="black"/>
<path d="M144.085 346.472V335.058H132.672V346.472H144.085ZM266.94 346.472L278.013 343.703L275.851 335.058H266.94V346.472ZM268.68 357.261L257.33 358.455L257.361 358.749L257.407 359.041L268.68 357.261ZM262.068 416.774L272.762 420.761L272.762 420.761L262.068 416.774ZM239.794 452.969L248.105 460.791L248.121 460.774L248.137 460.757L239.794 452.969ZM199.422 480.812L203.768 491.365L203.834 491.338L203.899 491.31L199.422 480.812ZM93.9685 480.812L89.677 491.387L89.7034 491.398L89.7298 491.409L93.9685 480.812ZM51.8567 454.013L43.9462 462.24L43.9877 462.28L44.0296 462.32L51.8567 454.013ZM23.3181 412.946L12.8515 417.496L12.8638 417.524L12.8761 417.552L23.3181 412.946ZM23.3181 308.188L33.7601 312.795L33.7725 312.767L33.7847 312.739L23.3181 308.188ZM51.8567 267.12L59.6838 275.427L59.7257 275.387L59.7672 275.347L51.8567 267.12ZM93.9685 239.974L89.7298 229.377L89.7034 229.388L89.677 229.398L93.9685 239.974ZM200.466 241.018L195.674 251.376L195.703 251.389L195.732 251.403L200.466 241.018ZM241.882 270.601L249.875 278.747L257.868 270.905L250.179 262.764L241.882 270.601ZM204.991 306.796L196.92 314.866L204.914 322.86L212.984 314.943L204.991 306.796ZM178.888 288.35L173.89 298.61L174.046 298.687L174.205 298.758L178.888 288.35ZM114.502 287.654L118.741 298.251L118.808 298.224L118.874 298.197L114.502 287.654ZM89.7922 303.664L97.7245 311.87L97.7291 311.865L89.7922 303.664ZM73.0866 328.374L62.5964 323.878L62.5698 323.94L62.5439 324.003L73.0866 328.374ZM73.0866 392.76L62.5073 397.042L62.5696 397.196L62.6363 397.348L73.0866 392.76ZM90.1402 417.47L82.2033 425.671L82.2727 425.739L82.3433 425.805L90.1402 417.47ZM115.198 433.479L110.827 444.022L110.938 444.068L111.049 444.112L115.198 433.479ZM196.986 421.994L189.435 413.436L189.414 413.455L189.394 413.473L196.986 421.994ZM207.775 409.117L198.215 402.883L198.18 402.936L198.146 402.99L207.775 409.117ZM216.128 391.716L226.955 395.325L231.962 380.303H216.128V391.716ZM144.085 391.716H132.672V403.129H144.085V391.716ZM144.085 357.885H266.94V335.058H144.085V357.885ZM255.868 349.24C256.385 351.308 256.895 354.325 257.33 358.455L280.031 356.066C279.537 351.379 278.888 347.203 278.013 343.703L255.868 349.24ZM257.407 359.041C258.022 362.935 258.311 366.513 258.311 369.79H281.138C281.138 365.178 280.731 360.402 279.954 355.481L257.407 359.041ZM258.311 369.79C258.311 386.336 255.916 400.606 251.374 412.786L272.762 420.761C278.429 405.563 281.138 388.511 281.138 369.79H258.311ZM251.374 412.786C246.783 425.1 240.145 435.866 231.45 445.182L248.137 460.757C258.932 449.191 267.144 435.827 272.762 420.761L251.374 412.786ZM231.483 445.147C221.485 455.77 209.355 464.168 194.945 470.314L203.899 491.31C221.044 483.998 235.829 473.835 248.105 460.791L231.483 445.147ZM195.077 470.258C180.906 476.094 164.44 479.144 145.477 479.144V501.97C166.886 501.97 186.384 498.523 203.768 491.365L195.077 470.258ZM145.477 479.144C128.78 479.144 113.054 476.154 98.2073 470.215L89.7298 491.409C107.366 498.463 125.979 501.97 145.477 501.97V479.144ZM98.2601 470.236C83.5033 464.248 70.6778 456.067 59.6838 445.707L44.0296 462.32C57.1658 474.698 72.4149 484.382 89.677 491.387L98.2601 470.236ZM59.7672 445.786C48.8063 435.247 40.1393 422.798 33.7601 408.339L12.8761 417.552C20.4182 434.648 30.7769 449.577 43.9462 462.24L59.7672 445.786ZM33.7847 408.395C27.5026 393.946 24.2902 377.995 24.2902 360.393H1.46411C1.46411 380.842 5.21238 399.926 12.8515 417.496L33.7847 408.395ZM24.2902 360.393C24.2902 342.789 27.5032 326.977 33.7601 312.795L12.8761 303.581C5.21177 320.954 1.46411 339.946 1.46411 360.393H24.2902ZM33.7847 312.739C40.1622 298.07 48.803 285.68 59.6838 275.427L44.0296 258.814C30.7802 271.299 20.3953 286.287 12.8515 303.637L33.7847 312.739ZM59.7672 275.347C70.7524 264.785 83.5511 256.518 98.2601 250.549L89.677 229.398C72.3671 236.423 57.0912 246.254 43.9462 258.893L59.7672 275.347ZM98.2073 250.571C113.054 244.632 128.78 241.642 145.477 241.642V218.816C125.979 218.816 107.366 222.323 89.7298 229.377L98.2073 250.571ZM145.477 241.642C165.312 241.642 181.938 245.021 195.674 251.376L205.259 230.66C187.904 222.63 167.87 218.816 145.477 218.816V241.642ZM195.732 251.403C210.177 257.988 222.77 266.986 233.585 278.437L250.179 262.764C237.328 249.157 222.311 238.433 205.201 230.633L195.732 251.403ZM233.889 262.454L196.998 298.649L212.984 314.943L249.875 278.747L233.889 262.454ZM213.061 298.726C204.087 289.752 194.265 282.754 183.572 277.942L174.205 298.758C182.073 302.299 189.653 307.599 196.92 314.866L213.061 298.726ZM183.887 278.09C172.825 272.701 159.612 270.325 144.781 270.325V293.151C157.329 293.151 166.854 295.183 173.89 298.61L183.887 278.09ZM144.781 270.325C132.664 270.325 121.08 272.572 110.131 277.111L118.874 298.197C126.95 294.848 135.553 293.151 144.781 293.151V270.325ZM110.264 277.057C99.6044 281.321 90.1119 287.472 81.8553 295.462L97.7291 311.865C103.858 305.934 110.839 301.412 118.741 298.251L110.264 277.057ZM81.8598 295.458C73.7087 303.337 67.3132 312.872 62.5964 323.878L83.5769 332.87C87.2129 324.386 91.9543 317.447 97.7245 311.87L81.8598 295.458ZM62.5439 324.003C57.9458 335.092 55.757 347.281 55.757 360.393H78.5832C78.5832 349.838 80.3388 340.681 83.6294 332.745L62.5439 324.003ZM55.757 360.393C55.757 373.51 57.9474 385.776 62.5073 397.042L83.6659 388.478C80.3372 380.254 78.5832 370.942 78.5832 360.393H55.757ZM62.6363 397.348C67.3851 408.164 73.9059 417.642 82.2033 425.671L98.0771 409.269C91.9892 403.377 87.141 396.381 83.537 388.172L62.6363 397.348ZM82.3433 425.805C90.5812 433.511 100.108 439.578 110.827 444.022L119.57 422.937C111.264 419.493 104.084 414.886 97.9371 409.135L82.3433 425.805ZM111.049 444.112C121.972 448.374 133.598 450.461 145.825 450.461V427.635C136.243 427.635 127.45 426.009 119.348 422.847L111.049 444.112ZM145.825 450.461C169.247 450.461 189.243 444.179 204.578 430.516L189.394 413.473C179.207 422.548 165.095 427.635 145.825 427.635V450.461ZM204.537 430.552C209.394 426.266 213.665 421.12 217.404 415.245L198.146 402.99C195.389 407.323 192.466 410.762 189.435 413.436L204.537 430.552ZM217.335 415.352C221.367 409.169 224.57 402.481 226.955 395.325L205.3 388.107C203.509 393.479 201.143 398.393 198.215 402.883L217.335 415.352ZM216.128 380.303H144.085V403.129H216.128V380.303ZM155.498 391.716V346.472H132.672V391.716H155.498Z" fill="black" mask="url(#path-3-outside-2_24_2)"/>
<path d="M480.062 90.937V158.397L366.346 77.171L365.931 76.8747L365.516 77.1713L248.947 160.536V90.9423L365.926 0.904287L480.062 90.937Z" fill="black" stroke="black" stroke-width="1.42663"/>
<path d="M480.062 190.117V224.205L366.273 162.01L365.931 161.823L365.589 162.01L251.801 224.205V189.405L365.929 111.429L480.062 190.117Z" fill="black" stroke="black" stroke-width="1.42663"/>
<path d="M470.705 250.76L459.547 310.731L397.584 285.735L396.6 285.338L396.604 286.399L397.315 485.055H333.832V286.396V285.335L332.849 285.736L271.611 310.724L261.152 250.763L365.931 195.542L470.705 250.76Z" fill="black" stroke="black" stroke-width="1.42663"/>
</svg>
